<svg width="1125" height="2436" viewBox="0 0 1125 2436" xmlns="http://www.w3.org/2000/svg">
  <defs>
    <linearGradient id="splashGradient" x1="0%" y1="0%" x2="100%" y2="100%">
      <stop offset="0%" style="stop-color:#FF1B6B;stop-opacity:1" />
      <stop offset="50%" style="stop-color:#FF4D8A;stop-opacity:1" />
      <stop offset="100%" style="stop-color:#45CAFF;stop-opacity:1" />
    </linearGradient>
    <radialGradient id="centerGradient" cx="50%" cy="50%" r="50%">
      <stop offset="0%" style="stop-color:#FFD700;stop-opacity:1" />
      <stop offset="100%" style="stop-color:#FFB000;stop-opacity:1" />
    </radialGradient>
    <filter id="textShadow" x="-50%" y="-50%" width="200%" height="200%">
      <feDropShadow dx="2" dy="2" stdDeviation="3" flood-color="rgba(0,0,0,0.3)"/>
    </filter>
  </defs>
  
  <!-- Background -->
  <rect width="1125" height="2436" fill="url(#splashGradient)" />
  
  <!-- Heart particles -->
  <g transform="translate(82.74659570822122,700.486660315374)" opacity="0.1">
      <path d="M 0,-5.308114742608059 
               C -2.6540573713040296,-7.9621721139120885 -7.9621721139120885,-7.9621721139120885 -7.9621721139120885,-2.6540573713040296
               C -7.9621721139120885,2.6540573713040296 -2.6540573713040296,7.9621721139120885 0,10.616229485216119
               C 2.6540573713040296,7.9621721139120885 7.9621721139120885,2.6540573713040296 7.9621721139120885,-2.6540573713040296
               C 7.9621721139120885,-7.9621721139120885 2.6540573713040296,-7.9621721139120885 0,-5.308114742608059
               Z" 
            fill="#FFFFFF"/>
    </g><g transform="translate(160.0341080348627,1227.188850024942)" opacity="0.1">
      <path d="M 0,-9.24196162050274 
               C -4.62098081025137,-13.862942430754112 -13.862942430754112,-13.862942430754112 -13.862942430754112,-4.62098081025137
               C -13.862942430754112,4.62098081025137 -4.62098081025137,13.862942430754112 0,18.48392324100548
               C 4.62098081025137,13.862942430754112 13.862942430754112,4.62098081025137 13.862942430754112,-4.62098081025137
               C 13.862942430754112,-13.862942430754112 4.62098081025137,-13.862942430754112 0,-9.24196162050274
               Z" 
            fill="#FFFFFF"/>
    </g><g transform="translate(198.75440758365136,925.629007206092)" opacity="0.1">
      <path d="M 0,-7.470514296500932 
               C -3.735257148250466,-11.205771444751397 -11.205771444751397,-11.205771444751397 -11.205771444751397,-3.735257148250466
               C -11.205771444751397,3.735257148250466 -3.735257148250466,11.205771444751397 0,14.941028593001864
               C 3.735257148250466,11.205771444751397 11.205771444751397,3.735257148250466 11.205771444751397,-3.735257148250466
               C 11.205771444751397,-11.205771444751397 3.735257148250466,-11.205771444751397 0,-7.470514296500932
               Z" 
            fill="#FFFFFF"/>
    </g><g transform="translate(291.8493091008593,906.8896210168789)" opacity="0.1">
      <path d="M 0,-5.34422279025856 
               C -2.67211139512928,-8.016334185387839 -8.016334185387839,-8.016334185387839 -8.016334185387839,-2.67211139512928
               C -8.016334185387839,2.67211139512928 -2.67211139512928,8.016334185387839 0,10.68844558051712
               C 2.67211139512928,8.016334185387839 8.016334185387839,2.67211139512928 8.016334185387839,-2.67211139512928
               C 8.016334185387839,-8.016334185387839 2.67211139512928,-8.016334185387839 0,-5.34422279025856
               Z" 
            fill="#FFFFFF"/>
    </g><g transform="translate(389.0676723686379,1347.0680457724811)" opacity="0.1">
      <path d="M 0,-9.137073021529417 
               C -4.568536510764709,-13.705609532294126 -13.705609532294126,-13.705609532294126 -13.705609532294126,-4.568536510764709
               C -13.705609532294126,4.568536510764709 -4.568536510764709,13.705609532294126 0,18.274146043058835
               C 4.568536510764709,13.705609532294126 13.705609532294126,4.568536510764709 13.705609532294126,-4.568536510764709
               C 13.705609532294126,-13.705609532294126 4.568536510764709,-13.705609532294126 0,-9.137073021529417
               Z" 
            fill="#FFFFFF"/>
    </g><g transform="translate(382.7404538109102,1160.6121871437758)" opacity="0.1">
      <path d="M 0,-4.922063550355517 
               C -2.4610317751777586,-7.383095325533274 -7.383095325533274,-7.383095325533274 -7.383095325533274,-2.4610317751777586
               C -7.383095325533274,2.4610317751777586 -2.4610317751777586,7.383095325533274 0,9.844127100711034
               C 2.4610317751777586,7.383095325533274 7.383095325533274,2.4610317751777586 7.383095325533274,-2.4610317751777586
               C 7.383095325533274,-7.383095325533274 2.4610317751777586,-7.383095325533274 0,-4.922063550355517
               Z" 
            fill="#FFFFFF"/>
    </g><g transform="translate(477.80703397165604,766.1765684335301)" opacity="0.1">
      <path d="M 0,-9.566391618967089 
               C -4.783195809483544,-14.349587428450633 -14.349587428450633,-14.349587428450633 -14.349587428450633,-4.783195809483544
               C -14.349587428450633,4.783195809483544 -4.783195809483544,14.349587428450633 0,19.132783237934177
               C 4.783195809483544,14.349587428450633 14.349587428450633,4.783195809483544 14.349587428450633,-4.783195809483544
               C 14.349587428450633,-14.349587428450633 4.783195809483544,-14.349587428450633 0,-9.566391618967089
               Z" 
            fill="#FFFFFF"/>
    </g><g transform="translate(592.1120334285997,875.265941496597)" opacity="0.1">
      <path d="M 0,-8.62519932939369 
               C -4.312599664696845,-12.937798994090533 -12.937798994090533,-12.937798994090533 -12.937798994090533,-4.312599664696845
               C -12.937798994090533,4.312599664696845 -4.312599664696845,12.937798994090533 0,17.25039865878738
               C 4.312599664696845,12.937798994090533 12.937798994090533,4.312599664696845 12.937798994090533,-4.312599664696845
               C 12.937798994090533,-12.937798994090533 4.312599664696845,-12.937798994090533 0,-8.62519932939369
               Z" 
            fill="#FFFFFF"/>
    </g><g transform="translate(607.004903411056,990.5781477210409)" opacity="0.1">
      <path d="M 0,-4.360800963054088 
               C -2.180400481527044,-6.541201444581133 -6.541201444581133,-6.541201444581133 -6.541201444581133,-2.180400481527044
               C -6.541201444581133,2.180400481527044 -2.180400481527044,6.541201444581133 0,8.721601926108177
               C 2.180400481527044,6.541201444581133 6.541201444581133,2.180400481527044 6.541201444581133,-2.180400481527044
               C 6.541201444581133,-6.541201444581133 2.180400481527044,-6.541201444581133 0,-4.360800963054088
               Z" 
            fill="#FFFFFF"/>
    </g><g transform="translate(675.5821033459047,1756.6735835200557)" opacity="0.1">
      <path d="M 0,-9.55453165445269 
               C -4.777265827226345,-14.331797481679034 -14.331797481679034,-14.331797481679034 -14.331797481679034,-4.777265827226345
               C -14.331797481679034,4.777265827226345 -4.777265827226345,14.331797481679034 0,19.10906330890538
               C 4.777265827226345,14.331797481679034 14.331797481679034,4.777265827226345 14.331797481679034,-4.777265827226345
               C 14.331797481679034,-14.331797481679034 4.777265827226345,-14.331797481679034 0,-9.55453165445269
               Z" 
            fill="#FFFFFF"/>
    </g><g transform="translate(806.4432686993456,838.8662158818607)" opacity="0.1">
      <path d="M 0,-6.917588134293374 
               C -3.458794067146687,-10.37638220144006 -10.37638220144006,-10.37638220144006 -10.37638220144006,-3.458794067146687
               C -10.37638220144006,3.458794067146687 -3.458794067146687,10.37638220144006 0,13.835176268586748
               C 3.458794067146687,10.37638220144006 10.37638220144006,3.458794067146687 10.37638220144006,-3.458794067146687
               C 10.37638220144006,-10.37638220144006 3.458794067146687,-10.37638220144006 0,-6.917588134293374
               Z" 
            fill="#FFFFFF"/>
    </g><g transform="translate(838.7848429094034,1272.8469483918957)" opacity="0.1">
      <path d="M 0,-7.8234732484534595 
               C -3.9117366242267297,-11.735209872680189 -11.735209872680189,-11.735209872680189 -11.735209872680189,-3.9117366242267297
               C -11.735209872680189,3.9117366242267297 -3.9117366242267297,11.735209872680189 0,15.646946496906919
               C 3.9117366242267297,11.735209872680189 11.735209872680189,3.9117366242267297 11.735209872680189,-3.9117366242267297
               C 11.735209872680189,-11.735209872680189 3.9117366242267297,-11.735209872680189 0,-7.8234732484534595
               Z" 
            fill="#FFFFFF"/>
    </g><g transform="translate(900.700392268217,1167.9073318996418)" opacity="0.1">
      <path d="M 0,-5.361880760619889 
               C -2.6809403803099445,-8.042821140929833 -8.042821140929833,-8.042821140929833 -8.042821140929833,-2.6809403803099445
               C -8.042821140929833,2.6809403803099445 -2.6809403803099445,8.042821140929833 0,10.723761521239778
               C 2.6809403803099445,8.042821140929833 8.042821140929833,2.6809403803099445 8.042821140929833,-2.6809403803099445
               C 8.042821140929833,-8.042821140929833 2.6809403803099445,-8.042821140929833 0,-5.361880760619889
               Z" 
            fill="#FFFFFF"/>
    </g><g transform="translate(1037.2660733769374,1685.4676054644144)" opacity="0.1">
      <path d="M 0,-8.746161497153889 
               C -4.373080748576944,-13.119242245730831 -13.119242245730831,-13.119242245730831 -13.119242245730831,-4.373080748576944
               C -13.119242245730831,4.373080748576944 -4.373080748576944,13.119242245730831 0,17.492322994307777
               C 4.373080748576944,13.119242245730831 13.119242245730831,4.373080748576944 13.119242245730831,-4.373080748576944
               C 13.119242245730831,-13.119242245730831 4.373080748576944,-13.119242245730831 0,-8.746161497153889
               Z" 
            fill="#FFFFFF"/>
    </g><g transform="translate(1120.724780755373,1043.9112433863615)" opacity="0.1">
      <path d="M 0,-7.109363615879225 
               C -3.5546818079396125,-10.664045423818838 -10.664045423818838,-10.664045423818838 -10.664045423818838,-3.5546818079396125
               C -10.664045423818838,3.5546818079396125 -3.5546818079396125,10.664045423818838 0,14.21872723175845
               C 3.5546818079396125,10.664045423818838 10.664045423818838,3.5546818079396125 10.664045423818838,-3.5546818079396125
               C 10.664045423818838,-10.664045423818838 3.5546818079396125,-10.664045423818838 0,-7.109363615879225
               Z" 
            fill="#FFFFFF"/>
    </g>
  
  <!-- Main logo -->
  <g transform="translate(562.5,1105.5)" filter="url(#textShadow)">
    <ellipse cx="2.7554552980815448e-15" cy="-45" rx="27" ry="16.2" 
                transform="rotate(-90 2.7554552980815448e-15 -45)" fill="#FFFFFF" opacity="0.9"/><ellipse cx="31.81980515339464" cy="-31.819805153394636" rx="27" ry="16.2" 
                transform="rotate(-45 31.81980515339464 -31.819805153394636)" fill="#FFFFFF" opacity="0.9"/><ellipse cx="45" cy="0" rx="27" ry="16.2" 
                transform="rotate(0 45 0)" fill="#FFFFFF" opacity="0.9"/><ellipse cx="31.81980515339464" cy="31.819805153394636" rx="27" ry="16.2" 
                transform="rotate(45 31.81980515339464 31.819805153394636)" fill="#FFFFFF" opacity="0.9"/><ellipse cx="2.7554552980815448e-15" cy="45" rx="27" ry="16.2" 
                transform="rotate(90 2.7554552980815448e-15 45)" fill="#FFFFFF" opacity="0.9"/><ellipse cx="-31.819805153394636" cy="31.81980515339464" rx="27" ry="16.2" 
                transform="rotate(135 -31.819805153394636 31.81980515339464)" fill="#FFFFFF" opacity="0.9"/><ellipse cx="-45" cy="5.5109105961630896e-15" rx="27" ry="16.2" 
                transform="rotate(180 -45 5.5109105961630896e-15)" fill="#FFFFFF" opacity="0.9"/><ellipse cx="-31.819805153394647" cy="-31.819805153394636" rx="27" ry="16.2" 
                transform="rotate(225 -31.819805153394647 -31.819805153394636)" fill="#FFFFFF" opacity="0.9"/>
    
    <!-- Center circle -->
    <circle cx="0" cy="0" r="27" fill="url(#centerGradient)" />
  </g>
  
  <!-- App title -->
  <text x="562.5" y="1398" 
        font-family="Arial, sans-serif" font-size="67.5" font-weight="bold" 
        text-anchor="middle" fill="#FFFFFF" filter="url(#textShadow)">
    Flourish
  </text>
  
  <!-- Subtitle -->
  <text x="562.5" y="1510.5" 
        font-family="Arial, sans-serif" font-size="39.37500000000001" 
        text-anchor="middle" fill="rgba(255,255,255,0.9)" filter="url(#textShadow)">
    AI-Powered Relationship Coach
  </text>
  
  <!-- Version -->
  <text x="562.5" y="2314.2" 
        font-family="Arial, sans-serif" font-size="23.625000000000004" 
        text-anchor="middle" fill="rgba(255,255,255,0.6)">
    v1.0.0
  </text>
</svg>