<svg width="768" height="1024" viewBox="0 0 768 1024" xmlns="http://www.w3.org/2000/svg">
  <defs>
    <linearGradient id="splashGradient" x1="0%" y1="0%" x2="100%" y2="100%">
      <stop offset="0%" style="stop-color:#FF1B6B;stop-opacity:1" />
      <stop offset="50%" style="stop-color:#FF4D8A;stop-opacity:1" />
      <stop offset="100%" style="stop-color:#45CAFF;stop-opacity:1" />
    </linearGradient>
    <radialGradient id="centerGradient" cx="50%" cy="50%" r="50%">
      <stop offset="0%" style="stop-color:#FFD700;stop-opacity:1" />
      <stop offset="100%" style="stop-color:#FFB000;stop-opacity:1" />
    </radialGradient>
    <filter id="textShadow" x="-50%" y="-50%" width="200%" height="200%">
      <feDropShadow dx="2" dy="2" stdDeviation="3" flood-color="rgba(0,0,0,0.3)"/>
    </filter>
  </defs>
  
  <!-- Background -->
  <rect width="768" height="1024" fill="url(#splashGradient)" />
  
  <!-- Heart particles -->
  <g transform="translate(55.51200567465193,732.1208530896467)" opacity="0.1">
      <path d="M 0,-6.659620572098522 
               C -3.329810286049261,-9.98943085814778 -9.98943085814778,-9.98943085814778 -9.98943085814778,-3.329810286049261
               C -9.98943085814778,3.329810286049261 -3.329810286049261,9.98943085814778 0,13.319241144197044
               C 3.329810286049261,9.98943085814778 9.98943085814778,3.329810286049261 9.98943085814778,-3.329810286049261
               C 9.98943085814778,-9.98943085814778 3.329810286049261,-9.98943085814778 0,-6.659620572098522
               Z" 
            fill="#FFFFFF"/>
    </g><g transform="translate(97.80404809901329,586.3414085209213)" opacity="0.1">
      <path d="M 0,-6.4134350100856725 
               C -3.2067175050428363,-9.620152515128508 -9.620152515128508,-9.620152515128508 -9.620152515128508,-3.2067175050428363
               C -9.620152515128508,3.2067175050428363 -3.2067175050428363,9.620152515128508 0,12.826870020171345
               C 3.2067175050428363,9.620152515128508 9.620152515128508,3.2067175050428363 9.620152515128508,-3.2067175050428363
               C 9.620152515128508,-9.620152515128508 3.2067175050428363,-9.620152515128508 0,-6.4134350100856725
               Z" 
            fill="#FFFFFF"/>
    </g><g transform="translate(118.42867743249167,519.8683347987637)" opacity="0.1">
      <path d="M 0,-8.584943350785059 
               C -4.292471675392529,-12.877415026177589 -12.877415026177589,-12.877415026177589 -12.877415026177589,-4.292471675392529
               C -12.877415026177589,4.292471675392529 -4.292471675392529,12.877415026177589 0,17.169886701570118
               C 4.292471675392529,12.877415026177589 12.877415026177589,4.292471675392529 12.877415026177589,-4.292471675392529
               C 12.877415026177589,-12.877415026177589 4.292471675392529,-12.877415026177589 0,-8.584943350785059
               Z" 
            fill="#FFFFFF"/>
    </g><g transform="translate(231.99466970189076,564.1249125306977)" opacity="0.1">
      <path d="M 0,-9.645576215463509 
               C -4.822788107731754,-14.468364323195262 -14.468364323195262,-14.468364323195262 -14.468364323195262,-4.822788107731754
               C -14.468364323195262,4.822788107731754 -4.822788107731754,14.468364323195262 0,19.291152430927017
               C 4.822788107731754,14.468364323195262 14.468364323195262,4.822788107731754 14.468364323195262,-4.822788107731754
               C 14.468364323195262,-14.468364323195262 4.822788107731754,-14.468364323195262 0,-9.645576215463509
               Z" 
            fill="#FFFFFF"/>
    </g><g transform="translate(205.89514482951594,499.57199380200313)" opacity="0.1">
      <path d="M 0,-6.426288445959061 
               C -3.2131442229795306,-9.639432668938591 -9.639432668938591,-9.639432668938591 -9.639432668938591,-3.2131442229795306
               C -9.639432668938591,3.2131442229795306 -3.2131442229795306,9.639432668938591 0,12.852576891918122
               C 3.2131442229795306,9.639432668938591 9.639432668938591,3.2131442229795306 9.639432668938591,-3.2131442229795306
               C 9.639432668938591,-9.639432668938591 3.2131442229795306,-9.639432668938591 0,-6.426288445959061
               Z" 
            fill="#FFFFFF"/>
    </g><g transform="translate(293.88103455245056,687.786243580852)" opacity="0.1">
      <path d="M 0,-4.224279697660234 
               C -2.112139848830117,-6.33641954649035 -6.33641954649035,-6.33641954649035 -6.33641954649035,-2.112139848830117
               C -6.33641954649035,2.112139848830117 -2.112139848830117,6.33641954649035 0,8.448559395320467
               C 2.112139848830117,6.33641954649035 6.33641954649035,2.112139848830117 6.33641954649035,-2.112139848830117
               C 6.33641954649035,-6.33641954649035 2.112139848830117,-6.33641954649035 0,-4.224279697660234
               Z" 
            fill="#FFFFFF"/>
    </g><g transform="translate(373.41790490788094,503.3054112665559)" opacity="0.1">
      <path d="M 0,-9.778540475341122 
               C -4.889270237670561,-14.667810713011681 -14.667810713011681,-14.667810713011681 -14.667810713011681,-4.889270237670561
               C -14.667810713011681,4.889270237670561 -4.889270237670561,14.667810713011681 0,19.557080950682245
               C 4.889270237670561,14.667810713011681 14.667810713011681,4.889270237670561 14.667810713011681,-4.889270237670561
               C 14.667810713011681,-14.667810713011681 4.889270237670561,-14.667810713011681 0,-9.778540475341122
               Z" 
            fill="#FFFFFF"/>
    </g><g transform="translate(442.91025883894656,586.6367520132359)" opacity="0.1">
      <path d="M 0,-5.710494192166528 
               C -2.855247096083264,-8.565741288249791 -8.565741288249791,-8.565741288249791 -8.565741288249791,-2.855247096083264
               C -8.565741288249791,2.855247096083264 -2.855247096083264,8.565741288249791 0,11.420988384333056
               C 2.855247096083264,8.565741288249791 8.565741288249791,2.855247096083264 8.565741288249791,-2.855247096083264
               C 8.565741288249791,-8.565741288249791 2.855247096083264,-8.565741288249791 0,-5.710494192166528
               Z" 
            fill="#FFFFFF"/>
    </g><g transform="translate(425.51686928106255,449.6107789375302)" opacity="0.1">
      <path d="M 0,-9.724796582573 
               C -4.8623982912865,-14.587194873859495 -14.587194873859495,-14.587194873859495 -14.587194873859495,-4.8623982912865
               C -14.587194873859495,4.8623982912865 -4.8623982912865,14.587194873859495 0,19.449593165146
               C 4.8623982912865,14.587194873859495 14.587194873859495,4.8623982912865 14.587194873859495,-4.8623982912865
               C 14.587194873859495,-14.587194873859495 4.8623982912865,-14.587194873859495 0,-9.724796582573
               Z" 
            fill="#FFFFFF"/>
    </g><g transform="translate(500.2635789814337,275.7869016231382)" opacity="0.1">
      <path d="M 0,-6.803801135887621 
               C -3.4019005679438106,-10.20570170383143 -10.20570170383143,-10.20570170383143 -10.20570170383143,-3.4019005679438106
               C -10.20570170383143,3.4019005679438106 -3.4019005679438106,10.20570170383143 0,13.607602271775242
               C 3.4019005679438106,10.20570170383143 10.20570170383143,3.4019005679438106 10.20570170383143,-3.4019005679438106
               C 10.20570170383143,-10.20570170383143 3.4019005679438106,-10.20570170383143 0,-6.803801135887621
               Z" 
            fill="#FFFFFF"/>
    </g><g transform="translate(549.690175986944,311.3460723013627)" opacity="0.1">
      <path d="M 0,-9.557036821135407 
               C -4.778518410567703,-14.33555523170311 -14.33555523170311,-14.33555523170311 -14.33555523170311,-4.778518410567703
               C -14.33555523170311,4.778518410567703 -4.778518410567703,14.33555523170311 0,19.114073642270814
               C 4.778518410567703,14.33555523170311 14.33555523170311,4.778518410567703 14.33555523170311,-4.778518410567703
               C 14.33555523170311,-14.33555523170311 4.778518410567703,-14.33555523170311 0,-9.557036821135407
               Z" 
            fill="#FFFFFF"/>
    </g><g transform="translate(594.721399599344,740.8340033915964)" opacity="0.1">
      <path d="M 0,-5.10498324965813 
               C -2.552491624829065,-7.657474874487195 -7.657474874487195,-7.657474874487195 -7.657474874487195,-2.552491624829065
               C -7.657474874487195,2.552491624829065 -2.552491624829065,7.657474874487195 0,10.20996649931626
               C 2.552491624829065,7.657474874487195 7.657474874487195,2.552491624829065 7.657474874487195,-2.552491624829065
               C 7.657474874487195,-7.657474874487195 2.552491624829065,-7.657474874487195 0,-5.10498324965813
               Z" 
            fill="#FFFFFF"/>
    </g><g transform="translate(640.2905961659097,753.0008902278483)" opacity="0.1">
      <path d="M 0,-9.028194590136073 
               C -4.514097295068036,-13.54229188520411 -13.54229188520411,-13.54229188520411 -13.54229188520411,-4.514097295068036
               C -13.54229188520411,4.514097295068036 -4.514097295068036,13.54229188520411 0,18.056389180272145
               C 4.514097295068036,13.54229188520411 13.54229188520411,4.514097295068036 13.54229188520411,-4.514097295068036
               C 13.54229188520411,-13.54229188520411 4.514097295068036,-13.54229188520411 0,-9.028194590136073
               Z" 
            fill="#FFFFFF"/>
    </g><g transform="translate(693.4023911147846,538.2810736954373)" opacity="0.1">
      <path d="M 0,-5.731535088095903 
               C -2.8657675440479515,-8.597302632143855 -8.597302632143855,-8.597302632143855 -8.597302632143855,-2.8657675440479515
               C -8.597302632143855,2.8657675440479515 -2.8657675440479515,8.597302632143855 0,11.463070176191806
               C 2.8657675440479515,8.597302632143855 8.597302632143855,2.8657675440479515 8.597302632143855,-2.8657675440479515
               C 8.597302632143855,-8.597302632143855 2.8657675440479515,-8.597302632143855 0,-5.731535088095903
               Z" 
            fill="#FFFFFF"/>
    </g><g transform="translate(772.6188592153001,687.0873452562521)" opacity="0.1">
      <path d="M 0,-8.233311841106026 
               C -4.116655920553013,-12.349967761659038 -12.349967761659038,-12.349967761659038 -12.349967761659038,-4.116655920553013
               C -12.349967761659038,4.116655920553013 -4.116655920553013,12.349967761659038 0,16.466623682212052
               C 4.116655920553013,12.349967761659038 12.349967761659038,4.116655920553013 12.349967761659038,-4.116655920553013
               C 12.349967761659038,-12.349967761659038 4.116655920553013,-12.349967761659038 0,-8.233311841106026
               Z" 
            fill="#FFFFFF"/>
    </g>
  
  <!-- Main logo -->
  <g transform="translate(384,435.2)" filter="url(#textShadow)">
    <ellipse cx="1.8810574834903347e-15" cy="-30.720000000000006" rx="18.432000000000002" ry="11.0592" 
                transform="rotate(-90 1.8810574834903347e-15 -30.720000000000006)" fill="#FFFFFF" opacity="0.9"/><ellipse cx="21.722320318050745" cy="-21.72232031805074" rx="18.432000000000002" ry="11.0592" 
                transform="rotate(-45 21.722320318050745 -21.72232031805074)" fill="#FFFFFF" opacity="0.9"/><ellipse cx="30.720000000000006" cy="0" rx="18.432000000000002" ry="11.0592" 
                transform="rotate(0 30.720000000000006 0)" fill="#FFFFFF" opacity="0.9"/><ellipse cx="21.722320318050745" cy="21.72232031805074" rx="18.432000000000002" ry="11.0592" 
                transform="rotate(45 21.722320318050745 21.72232031805074)" fill="#FFFFFF" opacity="0.9"/><ellipse cx="1.8810574834903347e-15" cy="30.720000000000006" rx="18.432000000000002" ry="11.0592" 
                transform="rotate(90 1.8810574834903347e-15 30.720000000000006)" fill="#FFFFFF" opacity="0.9"/><ellipse cx="-21.72232031805074" cy="21.722320318050745" rx="18.432000000000002" ry="11.0592" 
                transform="rotate(135 -21.72232031805074 21.722320318050745)" fill="#FFFFFF" opacity="0.9"/><ellipse cx="-30.720000000000006" cy="3.7621149669806694e-15" rx="18.432000000000002" ry="11.0592" 
                transform="rotate(180 -30.720000000000006 3.7621149669806694e-15)" fill="#FFFFFF" opacity="0.9"/><ellipse cx="-21.72232031805075" cy="-21.72232031805074" rx="18.432000000000002" ry="11.0592" 
                transform="rotate(225 -21.72232031805075 -21.72232031805074)" fill="#FFFFFF" opacity="0.9"/>
    
    <!-- Center circle -->
    <circle cx="0" cy="0" r="18.432000000000002" fill="url(#centerGradient)" />
  </g>
  
  <!-- App title -->
  <text x="384" y="634.88" 
        font-family="Arial, sans-serif" font-size="46.08" font-weight="bold" 
        text-anchor="middle" fill="#FFFFFF" filter="url(#textShadow)">
    Flourish
  </text>
  
  <!-- Subtitle -->
  <text x="384" y="711.6800000000001" 
        font-family="Arial, sans-serif" font-size="26.880000000000003" 
        text-anchor="middle" fill="rgba(255,255,255,0.9)" filter="url(#textShadow)">
    AI-Powered Relationship Coach
  </text>
  
  <!-- Version -->
  <text x="384" y="972.8" 
        font-family="Arial, sans-serif" font-size="16.128" 
        text-anchor="middle" fill="rgba(255,255,255,0.6)">
    v1.0.0
  </text>
</svg>