<svg width="1920" height="1080" viewBox="0 0 1920 1080" xmlns="http://www.w3.org/2000/svg">
  <defs>
    <linearGradient id="splashGradient" x1="0%" y1="0%" x2="100%" y2="100%">
      <stop offset="0%" style="stop-color:#FF1B6B;stop-opacity:1" />
      <stop offset="50%" style="stop-color:#FF4D8A;stop-opacity:1" />
      <stop offset="100%" style="stop-color:#45CAFF;stop-opacity:1" />
    </linearGradient>
    <radialGradient id="centerGradient" cx="50%" cy="50%" r="50%">
      <stop offset="0%" style="stop-color:#FFD700;stop-opacity:1" />
      <stop offset="100%" style="stop-color:#FFB000;stop-opacity:1" />
    </radialGradient>
    <filter id="textShadow" x="-50%" y="-50%" width="200%" height="200%">
      <feDropShadow dx="2" dy="2" stdDeviation="3" flood-color="rgba(0,0,0,0.3)"/>
    </filter>
  </defs>
  
  <!-- Background -->
  <rect width="1920" height="1080" fill="url(#splashGradient)" />
  
  <!-- Heart particles -->
  <g transform="translate(6.467421831908449,449.7896980185068)" opacity="0.1">
      <path d="M 0,-6.25408493056301 
               C -3.127042465281505,-9.381127395844516 -9.381127395844516,-9.381127395844516 -9.381127395844516,-3.127042465281505
               C -9.381127395844516,3.127042465281505 -3.127042465281505,9.381127395844516 0,12.50816986112602
               C 3.127042465281505,9.381127395844516 9.381127395844516,3.127042465281505 9.381127395844516,-3.127042465281505
               C 9.381127395844516,-9.381127395844516 3.127042465281505,-9.381127395844516 0,-6.25408493056301
               Z" 
            fill="#FFFFFF"/>
    </g><g transform="translate(181.16184447427676,362.35859077045694)" opacity="0.1">
      <path d="M 0,-6.728345758430692 
               C -3.364172879215346,-10.092518637646037 -10.092518637646037,-10.092518637646037 -10.092518637646037,-3.364172879215346
               C -10.092518637646037,3.364172879215346 -3.364172879215346,10.092518637646037 0,13.456691516861383
               C 3.364172879215346,10.092518637646037 10.092518637646037,3.364172879215346 10.092518637646037,-3.364172879215346
               C 10.092518637646037,-10.092518637646037 3.364172879215346,-10.092518637646037 0,-6.728345758430692
               Z" 
            fill="#FFFFFF"/>
    </g><g transform="translate(353.6911383547905,306.2564678235735)" opacity="0.1">
      <path d="M 0,-6.564812320139662 
               C -3.282406160069831,-9.847218480209492 -9.847218480209492,-9.847218480209492 -9.847218480209492,-3.282406160069831
               C -9.847218480209492,3.282406160069831 -3.282406160069831,9.847218480209492 0,13.129624640279324
               C 3.282406160069831,9.847218480209492 9.847218480209492,3.282406160069831 9.847218480209492,-3.282406160069831
               C 9.847218480209492,-9.847218480209492 3.282406160069831,-9.847218480209492 0,-6.564812320139662
               Z" 
            fill="#FFFFFF"/>
    </g><g transform="translate(467.72174101195446,795.1405361879132)" opacity="0.1">
      <path d="M 0,-6.506219101014134 
               C -3.253109550507067,-9.7593286515212 -9.7593286515212,-9.7593286515212 -9.7593286515212,-3.253109550507067
               C -9.7593286515212,3.253109550507067 -3.253109550507067,9.7593286515212 0,13.012438202028267
               C 3.253109550507067,9.7593286515212 9.7593286515212,3.253109550507067 9.7593286515212,-3.253109550507067
               C 9.7593286515212,-9.7593286515212 3.253109550507067,-9.7593286515212 0,-6.506219101014134
               Z" 
            fill="#FFFFFF"/>
    </g><g transform="translate(526.1309584590207,488.857708753588)" opacity="0.1">
      <path d="M 0,-8.97738928264445 
               C -4.488694641322225,-13.466083923966677 -13.466083923966677,-13.466083923966677 -13.466083923966677,-4.488694641322225
               C -13.466083923966677,4.488694641322225 -4.488694641322225,13.466083923966677 0,17.9547785652889
               C 4.488694641322225,13.466083923966677 13.466083923966677,4.488694641322225 13.466083923966677,-4.488694641322225
               C 13.466083923966677,-13.466083923966677 4.488694641322225,-13.466083923966677 0,-8.97738928264445
               Z" 
            fill="#FFFFFF"/>
    </g><g transform="translate(671.2398312799654,779.7671751625548)" opacity="0.1">
      <path d="M 0,-6.893473937608789 
               C -3.4467369688043945,-10.340210906413184 -10.340210906413184,-10.340210906413184 -10.340210906413184,-3.4467369688043945
               C -10.340210906413184,3.4467369688043945 -3.4467369688043945,10.340210906413184 0,13.786947875217578
               C 3.4467369688043945,10.340210906413184 10.340210906413184,3.4467369688043945 10.340210906413184,-3.4467369688043945
               C 10.340210906413184,-10.340210906413184 3.4467369688043945,-10.340210906413184 0,-6.893473937608789
               Z" 
            fill="#FFFFFF"/>
    </g><g transform="translate(806.3069385218234,392.4742430107344)" opacity="0.1">
      <path d="M 0,-7.569866240890608 
               C -3.784933120445304,-11.35479936133591 -11.35479936133591,-11.35479936133591 -11.35479936133591,-3.784933120445304
               C -11.35479936133591,3.784933120445304 -3.784933120445304,11.35479936133591 0,15.139732481781216
               C 3.784933120445304,11.35479936133591 11.35479936133591,3.784933120445304 11.35479936133591,-3.784933120445304
               C 11.35479936133591,-11.35479936133591 3.784933120445304,-11.35479936133591 0,-7.569866240890608
               Z" 
            fill="#FFFFFF"/>
    </g><g transform="translate(918.5222183376644,415.3520111061888)" opacity="0.1">
      <path d="M 0,-6.401368217190842 
               C -3.200684108595421,-9.602052325786262 -9.602052325786262,-9.602052325786262 -9.602052325786262,-3.200684108595421
               C -9.602052325786262,3.200684108595421 -3.200684108595421,9.602052325786262 0,12.802736434381684
               C 3.200684108595421,9.602052325786262 9.602052325786262,3.200684108595421 9.602052325786262,-3.200684108595421
               C 9.602052325786262,-9.602052325786262 3.200684108595421,-9.602052325786262 0,-6.401368217190842
               Z" 
            fill="#FFFFFF"/>
    </g><g transform="translate(1063.6088752886515,667.2533349303008)" opacity="0.1">
      <path d="M 0,-7.839274273196239 
               C -3.9196371365981193,-11.758911409794358 -11.758911409794358,-11.758911409794358 -11.758911409794358,-3.9196371365981193
               C -11.758911409794358,3.9196371365981193 -3.9196371365981193,11.758911409794358 0,15.678548546392477
               C 3.9196371365981193,11.758911409794358 11.758911409794358,3.9196371365981193 11.758911409794358,-3.9196371365981193
               C 11.758911409794358,-11.758911409794358 3.9196371365981193,-11.758911409794358 0,-7.839274273196239
               Z" 
            fill="#FFFFFF"/>
    </g><g transform="translate(1218.3400019650574,543.0658643391946)" opacity="0.1">
      <path d="M 0,-6.3273951744535255 
               C -3.1636975872267628,-9.491092761680287 -9.491092761680287,-9.491092761680287 -9.491092761680287,-3.1636975872267628
               C -9.491092761680287,3.1636975872267628 -3.1636975872267628,9.491092761680287 0,12.654790348907051
               C 3.1636975872267628,9.491092761680287 9.491092761680287,3.1636975872267628 9.491092761680287,-3.1636975872267628
               C 9.491092761680287,-9.491092761680287 3.1636975872267628,-9.491092761680287 0,-6.3273951744535255
               Z" 
            fill="#FFFFFF"/>
    </g><g transform="translate(1315.2827277230715,700.5593033809599)" opacity="0.1">
      <path d="M 0,-4.376332181293087 
               C -2.1881660906465434,-6.56449827193963 -6.56449827193963,-6.56449827193963 -6.56449827193963,-2.1881660906465434
               C -6.56449827193963,2.1881660906465434 -2.1881660906465434,6.56449827193963 0,8.752664362586174
               C 2.1881660906465434,6.56449827193963 6.56449827193963,2.1881660906465434 6.56449827193963,-2.1881660906465434
               C 6.56449827193963,-6.56449827193963 2.1881660906465434,-6.56449827193963 0,-4.376332181293087
               Z" 
            fill="#FFFFFF"/>
    </g><g transform="translate(1415.6629496905166,451.9594289080434)" opacity="0.1">
      <path d="M 0,-4.061439236414056 
               C -2.030719618207028,-6.0921588546210845 -6.0921588546210845,-6.0921588546210845 -6.0921588546210845,-2.030719618207028
               C -6.0921588546210845,2.030719618207028 -2.030719618207028,6.0921588546210845 0,8.122878472828113
               C 2.030719618207028,6.0921588546210845 6.0921588546210845,2.030719618207028 6.0921588546210845,-2.030719618207028
               C 6.0921588546210845,-6.0921588546210845 2.030719618207028,-6.0921588546210845 0,-4.061439236414056
               Z" 
            fill="#FFFFFF"/>
    </g><g transform="translate(1543.2190675257011,361.41864608846674)" opacity="0.1">
      <path d="M 0,-8.808833803987918 
               C -4.404416901993959,-13.213250705981876 -13.213250705981876,-13.213250705981876 -13.213250705981876,-4.404416901993959
               C -13.213250705981876,4.404416901993959 -4.404416901993959,13.213250705981876 0,17.617667607975836
               C 4.404416901993959,13.213250705981876 13.213250705981876,4.404416901993959 13.213250705981876,-4.404416901993959
               C 13.213250705981876,-13.213250705981876 4.404416901993959,-13.213250705981876 0,-8.808833803987918
               Z" 
            fill="#FFFFFF"/>
    </g><g transform="translate(1744.1626702444116,795.4897410004651)" opacity="0.1">
      <path d="M 0,-8.239112975918681 
               C -4.119556487959341,-12.358669463878021 -12.358669463878021,-12.358669463878021 -12.358669463878021,-4.119556487959341
               C -12.358669463878021,4.119556487959341 -4.119556487959341,12.358669463878021 0,16.478225951837363
               C 4.119556487959341,12.358669463878021 12.358669463878021,4.119556487959341 12.358669463878021,-4.119556487959341
               C 12.358669463878021,-12.358669463878021 4.119556487959341,-12.358669463878021 0,-8.239112975918681
               Z" 
            fill="#FFFFFF"/>
    </g><g transform="translate(1822.172407673213,621.1430480016609)" opacity="0.1">
      <path d="M 0,-7.908539511836196 
               C -3.954269755918098,-11.862809267754294 -11.862809267754294,-11.862809267754294 -11.862809267754294,-3.954269755918098
               C -11.862809267754294,3.954269755918098 -3.954269755918098,11.862809267754294 0,15.817079023672392
               C 3.954269755918098,11.862809267754294 11.862809267754294,3.954269755918098 11.862809267754294,-3.954269755918098
               C 11.862809267754294,-11.862809267754294 3.954269755918098,-11.862809267754294 0,-7.908539511836196
               Z" 
            fill="#FFFFFF"/>
    </g>
  
  <!-- Main logo -->
  <g transform="translate(960,432)" filter="url(#textShadow)">
    <ellipse cx="2.645237086158283e-15" cy="-43.2" rx="25.919999999999998" ry="15.551999999999998" 
                transform="rotate(-90 2.645237086158283e-15 -43.2)" fill="#FFFFFF" opacity="0.9"/><ellipse cx="30.547012947258857" cy="-30.547012947258853" rx="25.919999999999998" ry="15.551999999999998" 
                transform="rotate(-45 30.547012947258857 -30.547012947258853)" fill="#FFFFFF" opacity="0.9"/><ellipse cx="43.2" cy="0" rx="25.919999999999998" ry="15.551999999999998" 
                transform="rotate(0 43.2 0)" fill="#FFFFFF" opacity="0.9"/><ellipse cx="30.547012947258857" cy="30.547012947258853" rx="25.919999999999998" ry="15.551999999999998" 
                transform="rotate(45 30.547012947258857 30.547012947258853)" fill="#FFFFFF" opacity="0.9"/><ellipse cx="2.645237086158283e-15" cy="43.2" rx="25.919999999999998" ry="15.551999999999998" 
                transform="rotate(90 2.645237086158283e-15 43.2)" fill="#FFFFFF" opacity="0.9"/><ellipse cx="-30.547012947258853" cy="30.547012947258857" rx="25.919999999999998" ry="15.551999999999998" 
                transform="rotate(135 -30.547012947258853 30.547012947258857)" fill="#FFFFFF" opacity="0.9"/><ellipse cx="-43.2" cy="5.290474172316566e-15" rx="25.919999999999998" ry="15.551999999999998" 
                transform="rotate(180 -43.2 5.290474172316566e-15)" fill="#FFFFFF" opacity="0.9"/><ellipse cx="-30.54701294725886" cy="-30.547012947258853" rx="25.919999999999998" ry="15.551999999999998" 
                transform="rotate(225 -30.54701294725886 -30.547012947258853)" fill="#FFFFFF" opacity="0.9"/>
    
    <!-- Center circle -->
    <circle cx="0" cy="0" r="25.919999999999998" fill="url(#centerGradient)" />
  </g>
  
  <!-- App title -->
  <text x="960" y="712.8" 
        font-family="Arial, sans-serif" font-size="64.8" font-weight="bold" 
        text-anchor="middle" fill="#FFFFFF" filter="url(#textShadow)">
    Flourish
  </text>
  
  <!-- Subtitle -->
  <text x="960" y="820.8" 
        font-family="Arial, sans-serif" font-size="37.800000000000004" 
        text-anchor="middle" fill="rgba(255,255,255,0.9)" filter="url(#textShadow)">
    AI-Powered Relationship Coach
  </text>
  
  <!-- Version -->
  <text x="960" y="1026" 
        font-family="Arial, sans-serif" font-size="22.680000000000003" 
        text-anchor="middle" fill="rgba(255,255,255,0.6)">
    v1.0.0
  </text>
</svg>