<svg width="1920" height="1080" viewBox="0 0 1920 1080" xmlns="http://www.w3.org/2000/svg">
  <defs>
    <linearGradient id="splashGradient" x1="0%" y1="0%" x2="100%" y2="100%">
      <stop offset="0%" style="stop-color:#FF1B6B;stop-opacity:1" />
      <stop offset="50%" style="stop-color:#FF4D8A;stop-opacity:1" />
      <stop offset="100%" style="stop-color:#45CAFF;stop-opacity:1" />
    </linearGradient>
    <radialGradient id="centerGradient" cx="50%" cy="50%" r="50%">
      <stop offset="0%" style="stop-color:#FFD700;stop-opacity:1" />
      <stop offset="100%" style="stop-color:#FFB000;stop-opacity:1" />
    </radialGradient>
    <filter id="textShadow" x="-50%" y="-50%" width="200%" height="200%">
      <feDropShadow dx="2" dy="2" stdDeviation="3" flood-color="rgba(0,0,0,0.3)"/>
    </filter>
  </defs>
  
  <!-- Background -->
  <rect width="1920" height="1080" fill="url(#splashGradient)" />
  
  <!-- Heart particles -->
  <g transform="translate(44.371656977124395,422.680095649785)" opacity="0.1">
      <path d="M 0,-6.940660429664874 
               C -3.470330214832437,-10.41099064449731 -10.41099064449731,-10.41099064449731 -10.41099064449731,-3.470330214832437
               C -10.41099064449731,3.470330214832437 -3.470330214832437,10.41099064449731 0,13.881320859329747
               C 3.470330214832437,10.41099064449731 10.41099064449731,3.470330214832437 10.41099064449731,-3.470330214832437
               C 10.41099064449731,-10.41099064449731 3.470330214832437,-10.41099064449731 0,-6.940660429664874
               Z" 
            fill="#FFFFFF"/>
    </g><g transform="translate(204.31953910289474,557.7681249285822)" opacity="0.1">
      <path d="M 0,-8.87326802186981 
               C -4.436634010934905,-13.309902032804716 -13.309902032804716,-13.309902032804716 -13.309902032804716,-4.436634010934905
               C -13.309902032804716,4.436634010934905 -4.436634010934905,13.309902032804716 0,17.74653604373962
               C 4.436634010934905,13.309902032804716 13.309902032804716,4.436634010934905 13.309902032804716,-4.436634010934905
               C 13.309902032804716,-13.309902032804716 4.436634010934905,-13.309902032804716 0,-8.87326802186981
               Z" 
            fill="#FFFFFF"/>
    </g><g transform="translate(268.1862452803172,628.8246868790834)" opacity="0.1">
      <path d="M 0,-4.207931810827269 
               C -2.1039659054136344,-6.311897716240903 -6.311897716240903,-6.311897716240903 -6.311897716240903,-2.1039659054136344
               C -6.311897716240903,2.1039659054136344 -2.1039659054136344,6.311897716240903 0,8.415863621654537
               C 2.1039659054136344,6.311897716240903 6.311897716240903,2.1039659054136344 6.311897716240903,-2.1039659054136344
               C 6.311897716240903,-6.311897716240903 2.1039659054136344,-6.311897716240903 0,-4.207931810827269
               Z" 
            fill="#FFFFFF"/>
    </g><g transform="translate(439.3744218780272,392.6580671524947)" opacity="0.1">
      <path d="M 0,-5.266730433070897 
               C -2.6333652165354486,-7.900095649606346 -7.900095649606346,-7.900095649606346 -7.900095649606346,-2.6333652165354486
               C -7.900095649606346,2.6333652165354486 -2.6333652165354486,7.900095649606346 0,10.533460866141795
               C 2.6333652165354486,7.900095649606346 7.900095649606346,2.6333652165354486 7.900095649606346,-2.6333652165354486
               C 7.900095649606346,-7.900095649606346 2.6333652165354486,-7.900095649606346 0,-5.266730433070897
               Z" 
            fill="#FFFFFF"/>
    </g><g transform="translate(536.0341805702385,456.82538453317744)" opacity="0.1">
      <path d="M 0,-7.899848053546572 
               C -3.949924026773286,-11.849772080319857 -11.849772080319857,-11.849772080319857 -11.849772080319857,-3.949924026773286
               C -11.849772080319857,3.949924026773286 -3.949924026773286,11.849772080319857 0,15.799696107093144
               C 3.949924026773286,11.849772080319857 11.849772080319857,3.949924026773286 11.849772080319857,-3.949924026773286
               C 11.849772080319857,-11.849772080319857 3.949924026773286,-11.849772080319857 0,-7.899848053546572
               Z" 
            fill="#FFFFFF"/>
    </g><g transform="translate(693.8982327590606,581.8690940320606)" opacity="0.1">
      <path d="M 0,-5.463856083357722 
               C -2.731928041678861,-8.195784125036582 -8.195784125036582,-8.195784125036582 -8.195784125036582,-2.731928041678861
               C -8.195784125036582,2.731928041678861 -2.731928041678861,8.195784125036582 0,10.927712166715445
               C 2.731928041678861,8.195784125036582 8.195784125036582,2.731928041678861 8.195784125036582,-2.731928041678861
               C 8.195784125036582,-8.195784125036582 2.731928041678861,-8.195784125036582 0,-5.463856083357722
               Z" 
            fill="#FFFFFF"/>
    </g><g transform="translate(819.0192297034889,511.7511767741788)" opacity="0.1">
      <path d="M 0,-9.00229202238317 
               C -4.501146011191585,-13.503438033574753 -13.503438033574753,-13.503438033574753 -13.503438033574753,-4.501146011191585
               C -13.503438033574753,4.501146011191585 -4.501146011191585,13.503438033574753 0,18.00458404476634
               C 4.501146011191585,13.503438033574753 13.503438033574753,4.501146011191585 13.503438033574753,-4.501146011191585
               C 13.503438033574753,-13.503438033574753 4.501146011191585,-13.503438033574753 0,-9.00229202238317
               Z" 
            fill="#FFFFFF"/>
    </g><g transform="translate(932.0625145790009,469.43042695557097)" opacity="0.1">
      <path d="M 0,-4.255088113866571 
               C -2.1275440569332855,-6.382632170799856 -6.382632170799856,-6.382632170799856 -6.382632170799856,-2.1275440569332855
               C -6.382632170799856,2.1275440569332855 -2.1275440569332855,6.382632170799856 0,8.510176227733142
               C 2.1275440569332855,6.382632170799856 6.382632170799856,2.1275440569332855 6.382632170799856,-2.1275440569332855
               C 6.382632170799856,-6.382632170799856 2.1275440569332855,-6.382632170799856 0,-4.255088113866571
               Z" 
            fill="#FFFFFF"/>
    </g><g transform="translate(1076.9546955587648,413.03148699826704)" opacity="0.1">
      <path d="M 0,-8.265446503537968 
               C -4.132723251768984,-12.39816975530695 -12.39816975530695,-12.39816975530695 -12.39816975530695,-4.132723251768984
               C -12.39816975530695,4.132723251768984 -4.132723251768984,12.39816975530695 0,16.530893007075935
               C 4.132723251768984,12.39816975530695 12.39816975530695,4.132723251768984 12.39816975530695,-4.132723251768984
               C 12.39816975530695,-12.39816975530695 4.132723251768984,-12.39816975530695 0,-8.265446503537968
               Z" 
            fill="#FFFFFF"/>
    </g><g transform="translate(1184.7130037152565,512.0053069894459)" opacity="0.1">
      <path d="M 0,-5.263986407547016 
               C -2.631993203773508,-7.895979611320522 -7.895979611320522,-7.895979611320522 -7.895979611320522,-2.631993203773508
               C -7.895979611320522,2.631993203773508 -2.631993203773508,7.895979611320522 0,10.527972815094031
               C 2.631993203773508,7.895979611320522 7.895979611320522,2.631993203773508 7.895979611320522,-2.631993203773508
               C 7.895979611320522,-7.895979611320522 2.631993203773508,-7.895979611320522 0,-5.263986407547016
               Z" 
            fill="#FFFFFF"/>
    </g><g transform="translate(1371.1565623260913,687.1166173027468)" opacity="0.1">
      <path d="M 0,-5.299627619522842 
               C -2.649813809761421,-7.949441429284263 -7.949441429284263,-7.949441429284263 -7.949441429284263,-2.649813809761421
               C -7.949441429284263,2.649813809761421 -2.649813809761421,7.949441429284263 0,10.599255239045684
               C 2.649813809761421,7.949441429284263 7.949441429284263,2.649813809761421 7.949441429284263,-2.649813809761421
               C 7.949441429284263,-7.949441429284263 2.649813809761421,-7.949441429284263 0,-5.299627619522842
               Z" 
            fill="#FFFFFF"/>
    </g><g transform="translate(1507.0115053816592,688.939078629503)" opacity="0.1">
      <path d="M 0,-4.790664508120213 
               C -2.3953322540601065,-7.185996762180319 -7.185996762180319,-7.185996762180319 -7.185996762180319,-2.3953322540601065
               C -7.185996762180319,2.3953322540601065 -2.3953322540601065,7.185996762180319 0,9.581329016240426
               C 2.3953322540601065,7.185996762180319 7.185996762180319,2.3953322540601065 7.185996762180319,-2.3953322540601065
               C 7.185996762180319,-7.185996762180319 2.3953322540601065,-7.185996762180319 0,-4.790664508120213
               Z" 
            fill="#FFFFFF"/>
    </g><g transform="translate(1549.769850340006,567.3837375153358)" opacity="0.1">
      <path d="M 0,-5.953169575706024 
               C -2.976584787853012,-8.929754363559034 -8.929754363559034,-8.929754363559034 -8.929754363559034,-2.976584787853012
               C -8.929754363559034,2.976584787853012 -2.976584787853012,8.929754363559034 0,11.906339151412048
               C 2.976584787853012,8.929754363559034 8.929754363559034,2.976584787853012 8.929754363559034,-2.976584787853012
               C 8.929754363559034,-8.929754363559034 2.976584787853012,-8.929754363559034 0,-5.953169575706024
               Z" 
            fill="#FFFFFF"/>
    </g><g transform="translate(1688.7333512175592,277.47141782182103)" opacity="0.1">
      <path d="M 0,-9.634328222113378 
               C -4.817164111056689,-14.451492333170066 -14.451492333170066,-14.451492333170066 -14.451492333170066,-4.817164111056689
               C -14.451492333170066,4.817164111056689 -4.817164111056689,14.451492333170066 0,19.268656444226757
               C 4.817164111056689,14.451492333170066 14.451492333170066,4.817164111056689 14.451492333170066,-4.817164111056689
               C 14.451492333170066,-14.451492333170066 4.817164111056689,-14.451492333170066 0,-9.634328222113378
               Z" 
            fill="#FFFFFF"/>
    </g><g transform="translate(1813.1275073687411,547.1856553285012)" opacity="0.1">
      <path d="M 0,-8.52700623594149 
               C -4.263503117970745,-12.790509353912233 -12.790509353912233,-12.790509353912233 -12.790509353912233,-4.263503117970745
               C -12.790509353912233,4.263503117970745 -4.263503117970745,12.790509353912233 0,17.05401247188298
               C 4.263503117970745,12.790509353912233 12.790509353912233,4.263503117970745 12.790509353912233,-4.263503117970745
               C 12.790509353912233,-12.790509353912233 4.263503117970745,-12.790509353912233 0,-8.52700623594149
               Z" 
            fill="#FFFFFF"/>
    </g>
  
  <!-- Main logo -->
  <g transform="translate(960,432)" filter="url(#textShadow)">
    <ellipse cx="2.645237086158283e-15" cy="-43.2" rx="25.919999999999998" ry="15.551999999999998" 
                transform="rotate(-90 2.645237086158283e-15 -43.2)" fill="#FFFFFF" opacity="0.9"/><ellipse cx="30.547012947258857" cy="-30.547012947258853" rx="25.919999999999998" ry="15.551999999999998" 
                transform="rotate(-45 30.547012947258857 -30.547012947258853)" fill="#FFFFFF" opacity="0.9"/><ellipse cx="43.2" cy="0" rx="25.919999999999998" ry="15.551999999999998" 
                transform="rotate(0 43.2 0)" fill="#FFFFFF" opacity="0.9"/><ellipse cx="30.547012947258857" cy="30.547012947258853" rx="25.919999999999998" ry="15.551999999999998" 
                transform="rotate(45 30.547012947258857 30.547012947258853)" fill="#FFFFFF" opacity="0.9"/><ellipse cx="2.645237086158283e-15" cy="43.2" rx="25.919999999999998" ry="15.551999999999998" 
                transform="rotate(90 2.645237086158283e-15 43.2)" fill="#FFFFFF" opacity="0.9"/><ellipse cx="-30.547012947258853" cy="30.547012947258857" rx="25.919999999999998" ry="15.551999999999998" 
                transform="rotate(135 -30.547012947258853 30.547012947258857)" fill="#FFFFFF" opacity="0.9"/><ellipse cx="-43.2" cy="5.290474172316566e-15" rx="25.919999999999998" ry="15.551999999999998" 
                transform="rotate(180 -43.2 5.290474172316566e-15)" fill="#FFFFFF" opacity="0.9"/><ellipse cx="-30.54701294725886" cy="-30.547012947258853" rx="25.919999999999998" ry="15.551999999999998" 
                transform="rotate(225 -30.54701294725886 -30.547012947258853)" fill="#FFFFFF" opacity="0.9"/>
    
    <!-- Center circle -->
    <circle cx="0" cy="0" r="25.919999999999998" fill="url(#centerGradient)" />
  </g>
  
  <!-- App title -->
  <text x="960" y="712.8" 
        font-family="Arial, sans-serif" font-size="64.8" font-weight="bold" 
        text-anchor="middle" fill="#FFFFFF" filter="url(#textShadow)">
    Flourish
  </text>
  
  <!-- Subtitle -->
  <text x="960" y="820.8" 
        font-family="Arial, sans-serif" font-size="37.800000000000004" 
        text-anchor="middle" fill="rgba(255,255,255,0.9)" filter="url(#textShadow)">
    AI-Powered Relationship Coach
  </text>
  
  <!-- Version -->
  <text x="960" y="1026" 
        font-family="Arial, sans-serif" font-size="22.680000000000003" 
        text-anchor="middle" fill="rgba(255,255,255,0.6)">
    v1.0.0
  </text>
</svg>