<svg width="1125" height="2436" viewBox="0 0 1125 2436" xmlns="http://www.w3.org/2000/svg">
  <defs>
    <linearGradient id="splashGradient" x1="0%" y1="0%" x2="100%" y2="100%">
      <stop offset="0%" style="stop-color:#FF1B6B;stop-opacity:1" />
      <stop offset="50%" style="stop-color:#FF4D8A;stop-opacity:1" />
      <stop offset="100%" style="stop-color:#45CAFF;stop-opacity:1" />
    </linearGradient>
    <radialGradient id="centerGradient" cx="50%" cy="50%" r="50%">
      <stop offset="0%" style="stop-color:#FFD700;stop-opacity:1" />
      <stop offset="100%" style="stop-color:#FFB000;stop-opacity:1" />
    </radialGradient>
    <filter id="textShadow" x="-50%" y="-50%" width="200%" height="200%">
      <feDropShadow dx="2" dy="2" stdDeviation="3" flood-color="rgba(0,0,0,0.3)"/>
    </filter>
  </defs>
  
  <!-- Background -->
  <rect width="1125" height="2436" fill="url(#splashGradient)" />
  
  <!-- Heart particles -->
  <g transform="translate(83.45468895000691,712.622893643114)" opacity="0.1">
      <path d="M 0,-4.638883487686883 
               C -2.3194417438434414,-6.958325231530324 -6.958325231530324,-6.958325231530324 -6.958325231530324,-2.3194417438434414
               C -6.958325231530324,2.3194417438434414 -2.3194417438434414,6.958325231530324 0,9.277766975373765
               C 2.3194417438434414,6.958325231530324 6.958325231530324,2.3194417438434414 6.958325231530324,-2.3194417438434414
               C 6.958325231530324,-6.958325231530324 2.3194417438434414,-6.958325231530324 0,-4.638883487686883
               Z" 
            fill="#FFFFFF"/>
    </g><g transform="translate(169.52340600530383,794.2632479601755)" opacity="0.1">
      <path d="M 0,-8.618605187224054 
               C -4.309302593612027,-12.927907780836081 -12.927907780836081,-12.927907780836081 -12.927907780836081,-4.309302593612027
               C -12.927907780836081,4.309302593612027 -4.309302593612027,12.927907780836081 0,17.237210374448107
               C 4.309302593612027,12.927907780836081 12.927907780836081,4.309302593612027 12.927907780836081,-4.309302593612027
               C 12.927907780836081,-12.927907780836081 4.309302593612027,-12.927907780836081 0,-8.618605187224054
               Z" 
            fill="#FFFFFF"/>
    </g><g transform="translate(241.0980348841565,906.1993643159111)" opacity="0.1">
      <path d="M 0,-4.518084589460362 
               C -2.259042294730181,-6.777126884190543 -6.777126884190543,-6.777126884190543 -6.777126884190543,-2.259042294730181
               C -6.777126884190543,2.259042294730181 -2.259042294730181,6.777126884190543 0,9.036169178920725
               C 2.259042294730181,6.777126884190543 6.777126884190543,2.259042294730181 6.777126884190543,-2.259042294730181
               C 6.777126884190543,-6.777126884190543 2.259042294730181,-6.777126884190543 0,-4.518084589460362
               Z" 
            fill="#FFFFFF"/>
    </g><g transform="translate(277.5581679716899,982.3690558297511)" opacity="0.1">
      <path d="M 0,-4.393243201625036 
               C -2.196621600812518,-6.589864802437552 -6.589864802437552,-6.589864802437552 -6.589864802437552,-2.196621600812518
               C -6.589864802437552,2.196621600812518 -2.196621600812518,6.589864802437552 0,8.786486403250072
               C 2.196621600812518,6.589864802437552 6.589864802437552,2.196621600812518 6.589864802437552,-2.196621600812518
               C 6.589864802437552,-6.589864802437552 2.196621600812518,-6.589864802437552 0,-4.393243201625036
               Z" 
            fill="#FFFFFF"/>
    </g><g transform="translate(303.3912102721956,1638.3280437492997)" opacity="0.1">
      <path d="M 0,-8.486035658699326 
               C -4.243017829349663,-12.729053488048987 -12.729053488048987,-12.729053488048987 -12.729053488048987,-4.243017829349663
               C -12.729053488048987,4.243017829349663 -4.243017829349663,12.729053488048987 0,16.97207131739865
               C 4.243017829349663,12.729053488048987 12.729053488048987,4.243017829349663 12.729053488048987,-4.243017829349663
               C 12.729053488048987,-12.729053488048987 4.243017829349663,-12.729053488048987 0,-8.486035658699326
               Z" 
            fill="#FFFFFF"/>
    </g><g transform="translate(470.6627199358165,1487.527428248963)" opacity="0.1">
      <path d="M 0,-9.361263508872026 
               C -4.680631754436013,-14.041895263308037 -14.041895263308037,-14.041895263308037 -14.041895263308037,-4.680631754436013
               C -14.041895263308037,4.680631754436013 -4.680631754436013,14.041895263308037 0,18.722527017744053
               C 4.680631754436013,14.041895263308037 14.041895263308037,4.680631754436013 14.041895263308037,-4.680631754436013
               C 14.041895263308037,-14.041895263308037 4.680631754436013,-14.041895263308037 0,-9.361263508872026
               Z" 
            fill="#FFFFFF"/>
    </g><g transform="translate(534.0169732947243,1602.692675366432)" opacity="0.1">
      <path d="M 0,-8.523570377775536 
               C -4.261785188887768,-12.785355566663304 -12.785355566663304,-12.785355566663304 -12.785355566663304,-4.261785188887768
               C -12.785355566663304,4.261785188887768 -4.261785188887768,12.785355566663304 0,17.047140755551073
               C 4.261785188887768,12.785355566663304 12.785355566663304,4.261785188887768 12.785355566663304,-4.261785188887768
               C 12.785355566663304,-12.785355566663304 4.261785188887768,-12.785355566663304 0,-8.523570377775536
               Z" 
            fill="#FFFFFF"/>
    </g><g transform="translate(603.2090169342447,1231.1749570184936)" opacity="0.1">
      <path d="M 0,-4.62677882696707 
               C -2.313389413483535,-6.940168240450604 -6.940168240450604,-6.940168240450604 -6.940168240450604,-2.313389413483535
               C -6.940168240450604,2.313389413483535 -2.313389413483535,6.940168240450604 0,9.25355765393414
               C 2.313389413483535,6.940168240450604 6.940168240450604,2.313389413483535 6.940168240450604,-2.313389413483535
               C 6.940168240450604,-6.940168240450604 2.313389413483535,-6.940168240450604 0,-4.62677882696707
               Z" 
            fill="#FFFFFF"/>
    </g><g transform="translate(617.0865738661482,1184.6684930358651)" opacity="0.1">
      <path d="M 0,-6.889770619740209 
               C -3.4448853098701044,-10.334655929610312 -10.334655929610312,-10.334655929610312 -10.334655929610312,-3.4448853098701044
               C -10.334655929610312,3.4448853098701044 -3.4448853098701044,10.334655929610312 0,13.779541239480418
               C 3.4448853098701044,10.334655929610312 10.334655929610312,3.4448853098701044 10.334655929610312,-3.4448853098701044
               C 10.334655929610312,-10.334655929610312 3.4448853098701044,-10.334655929610312 0,-6.889770619740209
               Z" 
            fill="#FFFFFF"/>
    </g><g transform="translate(765.8480157669436,1572.1627679686712)" opacity="0.1">
      <path d="M 0,-5.932928876776291 
               C -2.9664644383881456,-8.899393315164437 -8.899393315164437,-8.899393315164437 -8.899393315164437,-2.9664644383881456
               C -8.899393315164437,2.9664644383881456 -2.9664644383881456,8.899393315164437 0,11.865857753552582
               C 2.9664644383881456,8.899393315164437 8.899393315164437,2.9664644383881456 8.899393315164437,-2.9664644383881456
               C 8.899393315164437,-8.899393315164437 2.9664644383881456,-8.899393315164437 0,-5.932928876776291
               Z" 
            fill="#FFFFFF"/>
    </g><g transform="translate(771.818884454094,1806.6825402030984)" opacity="0.1">
      <path d="M 0,-6.216769629033818 
               C -3.108384814516909,-9.325154443550726 -9.325154443550726,-9.325154443550726 -9.325154443550726,-3.108384814516909
               C -9.325154443550726,3.108384814516909 -3.108384814516909,9.325154443550726 0,12.433539258067636
               C 3.108384814516909,9.325154443550726 9.325154443550726,3.108384814516909 9.325154443550726,-3.108384814516909
               C 9.325154443550726,-9.325154443550726 3.108384814516909,-9.325154443550726 0,-6.216769629033818
               Z" 
            fill="#FFFFFF"/>
    </g><g transform="translate(902.3822234577256,848.2435215096757)" opacity="0.1">
      <path d="M 0,-4.828911905312428 
               C -2.414455952656214,-7.243367857968642 -7.243367857968642,-7.243367857968642 -7.243367857968642,-2.414455952656214
               C -7.243367857968642,2.414455952656214 -2.414455952656214,7.243367857968642 0,9.657823810624857
               C 2.414455952656214,7.243367857968642 7.243367857968642,2.414455952656214 7.243367857968642,-2.414455952656214
               C 7.243367857968642,-7.243367857968642 2.414455952656214,-7.243367857968642 0,-4.828911905312428
               Z" 
            fill="#FFFFFF"/>
    </g><g transform="translate(962.9636727380679,1789.4559224147254)" opacity="0.1">
      <path d="M 0,-7.056877749084428 
               C -3.528438874542214,-10.585316623626642 -10.585316623626642,-10.585316623626642 -10.585316623626642,-3.528438874542214
               C -10.585316623626642,3.528438874542214 -3.528438874542214,10.585316623626642 0,14.113755498168857
               C 3.528438874542214,10.585316623626642 10.585316623626642,3.528438874542214 10.585316623626642,-3.528438874542214
               C 10.585316623626642,-10.585316623626642 3.528438874542214,-10.585316623626642 0,-7.056877749084428
               Z" 
            fill="#FFFFFF"/>
    </g><g transform="translate(1042.9499130472777,1391.5546774369705)" opacity="0.1">
      <path d="M 0,-5.328951734753994 
               C -2.664475867376997,-7.99342760213099 -7.99342760213099,-7.99342760213099 -7.99342760213099,-2.664475867376997
               C -7.99342760213099,2.664475867376997 -2.664475867376997,7.99342760213099 0,10.657903469507987
               C 2.664475867376997,7.99342760213099 7.99342760213099,2.664475867376997 7.99342760213099,-2.664475867376997
               C 7.99342760213099,-7.99342760213099 2.664475867376997,-7.99342760213099 0,-5.328951734753994
               Z" 
            fill="#FFFFFF"/>
    </g><g transform="translate(1119.9397943801282,1302.8854708394792)" opacity="0.1">
      <path d="M 0,-4.922011867741951 
               C -2.4610059338709753,-7.383017801612926 -7.383017801612926,-7.383017801612926 -7.383017801612926,-2.4610059338709753
               C -7.383017801612926,2.4610059338709753 -2.4610059338709753,7.383017801612926 0,9.844023735483901
               C 2.4610059338709753,7.383017801612926 7.383017801612926,2.4610059338709753 7.383017801612926,-2.4610059338709753
               C 7.383017801612926,-7.383017801612926 2.4610059338709753,-7.383017801612926 0,-4.922011867741951
               Z" 
            fill="#FFFFFF"/>
    </g>
  
  <!-- Main logo -->
  <g transform="translate(562.5,1105.5)" filter="url(#textShadow)">
    <ellipse cx="2.7554552980815448e-15" cy="-45" rx="27" ry="16.2" 
                transform="rotate(-90 2.7554552980815448e-15 -45)" fill="#FFFFFF" opacity="0.9"/><ellipse cx="31.81980515339464" cy="-31.819805153394636" rx="27" ry="16.2" 
                transform="rotate(-45 31.81980515339464 -31.819805153394636)" fill="#FFFFFF" opacity="0.9"/><ellipse cx="45" cy="0" rx="27" ry="16.2" 
                transform="rotate(0 45 0)" fill="#FFFFFF" opacity="0.9"/><ellipse cx="31.81980515339464" cy="31.819805153394636" rx="27" ry="16.2" 
                transform="rotate(45 31.81980515339464 31.819805153394636)" fill="#FFFFFF" opacity="0.9"/><ellipse cx="2.7554552980815448e-15" cy="45" rx="27" ry="16.2" 
                transform="rotate(90 2.7554552980815448e-15 45)" fill="#FFFFFF" opacity="0.9"/><ellipse cx="-31.819805153394636" cy="31.81980515339464" rx="27" ry="16.2" 
                transform="rotate(135 -31.819805153394636 31.81980515339464)" fill="#FFFFFF" opacity="0.9"/><ellipse cx="-45" cy="5.5109105961630896e-15" rx="27" ry="16.2" 
                transform="rotate(180 -45 5.5109105961630896e-15)" fill="#FFFFFF" opacity="0.9"/><ellipse cx="-31.819805153394647" cy="-31.819805153394636" rx="27" ry="16.2" 
                transform="rotate(225 -31.819805153394647 -31.819805153394636)" fill="#FFFFFF" opacity="0.9"/>
    
    <!-- Center circle -->
    <circle cx="0" cy="0" r="27" fill="url(#centerGradient)" />
  </g>
  
  <!-- App title -->
  <text x="562.5" y="1398" 
        font-family="Arial, sans-serif" font-size="67.5" font-weight="bold" 
        text-anchor="middle" fill="#FFFFFF" filter="url(#textShadow)">
    Flourish
  </text>
  
  <!-- Subtitle -->
  <text x="562.5" y="1510.5" 
        font-family="Arial, sans-serif" font-size="39.37500000000001" 
        text-anchor="middle" fill="rgba(255,255,255,0.9)" filter="url(#textShadow)">
    AI-Powered Relationship Coach
  </text>
  
  <!-- Version -->
  <text x="562.5" y="2314.2" 
        font-family="Arial, sans-serif" font-size="23.625000000000004" 
        text-anchor="middle" fill="rgba(255,255,255,0.6)">
    v1.0.0
  </text>
</svg>