<svg width="375" height="667" viewBox="0 0 375 667" xmlns="http://www.w3.org/2000/svg">
  <defs>
    <linearGradient id="splashGradient" x1="0%" y1="0%" x2="100%" y2="100%">
      <stop offset="0%" style="stop-color:#FF1B6B;stop-opacity:1" />
      <stop offset="50%" style="stop-color:#FF4D8A;stop-opacity:1" />
      <stop offset="100%" style="stop-color:#45CAFF;stop-opacity:1" />
    </linearGradient>
    <radialGradient id="centerGradient" cx="50%" cy="50%" r="50%">
      <stop offset="0%" style="stop-color:#FFD700;stop-opacity:1" />
      <stop offset="100%" style="stop-color:#FFB000;stop-opacity:1" />
    </radialGradient>
    <filter id="textShadow" x="-50%" y="-50%" width="200%" height="200%">
      <feDropShadow dx="2" dy="2" stdDeviation="3" flood-color="rgba(0,0,0,0.3)"/>
    </filter>
  </defs>
  
  <!-- Background -->
  <rect width="375" height="667" fill="url(#splashGradient)" />
  
  <!-- Heart particles -->
  <g transform="translate(55.57200666760516,327.95424316620336)" opacity="0.1">
      <path d="M 0,-5.484347194413765 
               C -2.7421735972068824,-8.226520791620647 -8.226520791620647,-8.226520791620647 -8.226520791620647,-2.7421735972068824
               C -8.226520791620647,2.7421735972068824 -2.7421735972068824,8.226520791620647 0,10.96869438882753
               C 2.7421735972068824,8.226520791620647 8.226520791620647,2.7421735972068824 8.226520791620647,-2.7421735972068824
               C 8.226520791620647,-8.226520791620647 2.7421735972068824,-8.226520791620647 0,-5.484347194413765
               Z" 
            fill="#FFFFFF"/>
    </g><g transform="translate(43.6770489081264,244.03736342302238)" opacity="0.1">
      <path d="M 0,-4.980014972372943 
               C -2.4900074861864714,-7.470022458559414 -7.470022458559414,-7.470022458559414 -7.470022458559414,-2.4900074861864714
               C -7.470022458559414,2.4900074861864714 -2.4900074861864714,7.470022458559414 0,9.960029944745886
               C 2.4900074861864714,7.470022458559414 7.470022458559414,2.4900074861864714 7.470022458559414,-2.4900074861864714
               C 7.470022458559414,-7.470022458559414 2.4900074861864714,-7.470022458559414 0,-4.980014972372943
               Z" 
            fill="#FFFFFF"/>
    </g><g transform="translate(100.1627036794959,278.5026474444776)" opacity="0.1">
      <path d="M 0,-5.729033191882158 
               C -2.864516595941079,-8.593549787823237 -8.593549787823237,-8.593549787823237 -8.593549787823237,-2.864516595941079
               C -8.593549787823237,2.864516595941079 -2.864516595941079,8.593549787823237 0,11.458066383764317
               C 2.864516595941079,8.593549787823237 8.593549787823237,2.864516595941079 8.593549787823237,-2.864516595941079
               C 8.593549787823237,-8.593549787823237 2.864516595941079,-8.593549787823237 0,-5.729033191882158
               Z" 
            fill="#FFFFFF"/>
    </g><g transform="translate(93.0407189827695,192.7810902843708)" opacity="0.1">
      <path d="M 0,-9.504791860593249 
               C -4.7523959302966245,-14.257187790889875 -14.257187790889875,-14.257187790889875 -14.257187790889875,-4.7523959302966245
               C -14.257187790889875,4.7523959302966245 -4.7523959302966245,14.257187790889875 0,19.009583721186498
               C 4.7523959302966245,14.257187790889875 14.257187790889875,4.7523959302966245 14.257187790889875,-4.7523959302966245
               C 14.257187790889875,-14.257187790889875 4.7523959302966245,-14.257187790889875 0,-9.504791860593249
               Z" 
            fill="#FFFFFF"/>
    </g><g transform="translate(102.21434815595107,296.24681997063567)" opacity="0.1">
      <path d="M 0,-4.4567218730917135 
               C -2.2283609365458568,-6.68508280963757 -6.68508280963757,-6.68508280963757 -6.68508280963757,-2.2283609365458568
               C -6.68508280963757,2.2283609365458568 -2.2283609365458568,6.68508280963757 0,8.913443746183427
               C 2.2283609365458568,6.68508280963757 6.68508280963757,2.2283609365458568 6.68508280963757,-2.2283609365458568
               C 6.68508280963757,-6.68508280963757 2.2283609365458568,-6.68508280963757 0,-4.4567218730917135
               Z" 
            fill="#FFFFFF"/>
    </g><g transform="translate(217.46665968916457,357.58672802817637)" opacity="0.1">
      <path d="M 0,-4.87253500878305 
               C -2.436267504391525,-7.308802513174573 -7.308802513174573,-7.308802513174573 -7.308802513174573,-2.436267504391525
               C -7.308802513174573,2.436267504391525 -2.436267504391525,7.308802513174573 0,9.7450700175661
               C 2.436267504391525,7.308802513174573 7.308802513174573,2.436267504391525 7.308802513174573,-2.436267504391525
               C 7.308802513174573,-7.308802513174573 2.436267504391525,-7.308802513174573 0,-4.87253500878305
               Z" 
            fill="#FFFFFF"/>
    </g><g transform="translate(194.47211952034016,392.14144037085583)" opacity="0.1">
      <path d="M 0,-7.360240210101718 
               C -3.680120105050859,-11.040360315152576 -11.040360315152576,-11.040360315152576 -11.040360315152576,-3.680120105050859
               C -11.040360315152576,3.680120105050859 -3.680120105050859,11.040360315152576 0,14.720480420203437
               C 3.680120105050859,11.040360315152576 11.040360315152576,3.680120105050859 11.040360315152576,-3.680120105050859
               C 11.040360315152576,-11.040360315152576 3.680120105050859,-11.040360315152576 0,-7.360240210101718
               Z" 
            fill="#FFFFFF"/>
    </g><g transform="translate(234.335276005859,413.1349122209573)" opacity="0.1">
      <path d="M 0,-4.732247503419231 
               C -2.3661237517096154,-7.098371255128846 -7.098371255128846,-7.098371255128846 -7.098371255128846,-2.3661237517096154
               C -7.098371255128846,2.3661237517096154 -2.3661237517096154,7.098371255128846 0,9.464495006838462
               C 2.3661237517096154,7.098371255128846 7.098371255128846,2.3661237517096154 7.098371255128846,-2.3661237517096154
               C 7.098371255128846,-7.098371255128846 2.3661237517096154,-7.098371255128846 0,-4.732247503419231
               Z" 
            fill="#FFFFFF"/>
    </g><g transform="translate(285.5709132302769,343.5865808742292)" opacity="0.1">
      <path d="M 0,-6.317458803719821 
               C -3.1587294018599104,-9.47618820557973 -9.47618820557973,-9.47618820557973 -9.47618820557973,-3.1587294018599104
               C -9.47618820557973,3.1587294018599104 -3.1587294018599104,9.47618820557973 0,12.634917607439641
               C 3.1587294018599104,9.47618820557973 9.47618820557973,3.1587294018599104 9.47618820557973,-3.1587294018599104
               C 9.47618820557973,-9.47618820557973 3.1587294018599104,-9.47618820557973 0,-6.317458803719821
               Z" 
            fill="#FFFFFF"/>
    </g><g transform="translate(243.58703842363656,180.4382238669922)" opacity="0.1">
      <path d="M 0,-6.054051004487921 
               C -3.0270255022439607,-9.08107650673188 -9.08107650673188,-9.08107650673188 -9.08107650673188,-3.0270255022439607
               C -9.08107650673188,3.0270255022439607 -3.0270255022439607,9.08107650673188 0,12.108102008975843
               C 3.0270255022439607,9.08107650673188 9.08107650673188,3.0270255022439607 9.08107650673188,-3.0270255022439607
               C 9.08107650673188,-9.08107650673188 3.0270255022439607,-9.08107650673188 0,-6.054051004487921
               Z" 
            fill="#FFFFFF"/>
    </g><g transform="translate(336.71815995437265,452.2266309458997)" opacity="0.1">
      <path d="M 0,-8.829250658350933 
               C -4.4146253291754665,-13.243875987526398 -13.243875987526398,-13.243875987526398 -13.243875987526398,-4.4146253291754665
               C -13.243875987526398,4.4146253291754665 -4.4146253291754665,13.243875987526398 0,17.658501316701866
               C 4.4146253291754665,13.243875987526398 13.243875987526398,4.4146253291754665 13.243875987526398,-4.4146253291754665
               C 13.243875987526398,-13.243875987526398 4.4146253291754665,-13.243875987526398 0,-8.829250658350933
               Z" 
            fill="#FFFFFF"/>
    </g><g transform="translate(280.3205859236809,390.45377560540544)" opacity="0.1">
      <path d="M 0,-7.903936626537012 
               C -3.951968313268506,-11.855904939805518 -11.855904939805518,-11.855904939805518 -11.855904939805518,-3.951968313268506
               C -11.855904939805518,3.951968313268506 -3.951968313268506,11.855904939805518 0,15.807873253074025
               C 3.951968313268506,11.855904939805518 11.855904939805518,3.951968313268506 11.855904939805518,-3.951968313268506
               C 11.855904939805518,-11.855904939805518 3.951968313268506,-11.855904939805518 0,-7.903936626537012
               Z" 
            fill="#FFFFFF"/>
    </g><g transform="translate(356.589801514958,276.7869802064922)" opacity="0.1">
      <path d="M 0,-6.497325191677712 
               C -3.248662595838856,-9.745987787516567 -9.745987787516567,-9.745987787516567 -9.745987787516567,-3.248662595838856
               C -9.745987787516567,3.248662595838856 -3.248662595838856,9.745987787516567 0,12.994650383355424
               C 3.248662595838856,9.745987787516567 9.745987787516567,3.248662595838856 9.745987787516567,-3.248662595838856
               C 9.745987787516567,-9.745987787516567 3.248662595838856,-9.745987787516567 0,-6.497325191677712
               Z" 
            fill="#FFFFFF"/>
    </g><g transform="translate(379.5792068011434,395.31906782855094)" opacity="0.1">
      <path d="M 0,-7.598550133227267 
               C -3.7992750666136335,-11.397825199840899 -11.397825199840899,-11.397825199840899 -11.397825199840899,-3.7992750666136335
               C -11.397825199840899,3.7992750666136335 -3.7992750666136335,11.397825199840899 0,15.197100266454534
               C 3.7992750666136335,11.397825199840899 11.397825199840899,3.7992750666136335 11.397825199840899,-3.7992750666136335
               C 11.397825199840899,-11.397825199840899 3.7992750666136335,-11.397825199840899 0,-7.598550133227267
               Z" 
            fill="#FFFFFF"/>
    </g><g transform="translate(440.4694654701907,317.9780693720187)" opacity="0.1">
      <path d="M 0,-9.746817637435043 
               C -4.873408818717522,-14.620226456152562 -14.620226456152562,-14.620226456152562 -14.620226456152562,-4.873408818717522
               C -14.620226456152562,4.873408818717522 -4.873408818717522,14.620226456152562 0,19.493635274870087
               C 4.873408818717522,14.620226456152562 14.620226456152562,4.873408818717522 14.620226456152562,-4.873408818717522
               C 14.620226456152562,-14.620226456152562 4.873408818717522,-14.620226456152562 0,-9.746817637435043
               Z" 
            fill="#FFFFFF"/>
    </g>
  
  <!-- Main logo -->
  <g transform="translate(187.5,296)" filter="url(#textShadow)">
    <ellipse cx="9.18485099360515e-16" cy="-15" rx="9" ry="5.3999999999999995" 
                transform="rotate(-90 9.18485099360515e-16 -15)" fill="#FFFFFF" opacity="0.9"/><ellipse cx="10.606601717798213" cy="-10.606601717798211" rx="9" ry="5.3999999999999995" 
                transform="rotate(-45 10.606601717798213 -10.606601717798211)" fill="#FFFFFF" opacity="0.9"/><ellipse cx="15" cy="0" rx="9" ry="5.3999999999999995" 
                transform="rotate(0 15 0)" fill="#FFFFFF" opacity="0.9"/><ellipse cx="10.606601717798213" cy="10.606601717798211" rx="9" ry="5.3999999999999995" 
                transform="rotate(45 10.606601717798213 10.606601717798211)" fill="#FFFFFF" opacity="0.9"/><ellipse cx="9.18485099360515e-16" cy="15" rx="9" ry="5.3999999999999995" 
                transform="rotate(90 9.18485099360515e-16 15)" fill="#FFFFFF" opacity="0.9"/><ellipse cx="-10.606601717798211" cy="10.606601717798213" rx="9" ry="5.3999999999999995" 
                transform="rotate(135 -10.606601717798211 10.606601717798213)" fill="#FFFFFF" opacity="0.9"/><ellipse cx="-15" cy="1.83697019872103e-15" rx="9" ry="5.3999999999999995" 
                transform="rotate(180 -15 1.83697019872103e-15)" fill="#FFFFFF" opacity="0.9"/><ellipse cx="-10.606601717798215" cy="-10.606601717798211" rx="9" ry="5.3999999999999995" 
                transform="rotate(225 -10.606601717798215 -10.606601717798211)" fill="#FFFFFF" opacity="0.9"/>
    
    <!-- Center circle -->
    <circle cx="0" cy="0" r="9" fill="url(#centerGradient)" />
  </g>
  
  <!-- App title -->
  <text x="187.5" y="393.5" 
        font-family="Arial, sans-serif" font-size="22.5" font-weight="bold" 
        text-anchor="middle" fill="#FFFFFF" filter="url(#textShadow)">
    Flourish
  </text>
  
  <!-- Subtitle -->
  <text x="187.5" y="431" 
        font-family="Arial, sans-serif" font-size="13.125000000000002" 
        text-anchor="middle" fill="rgba(255,255,255,0.9)" filter="url(#textShadow)">
    AI-Powered Relationship Coach
  </text>
  
  <!-- Version -->
  <text x="187.5" y="633.65" 
        font-family="Arial, sans-serif" font-size="7.875000000000001" 
        text-anchor="middle" fill="rgba(255,255,255,0.6)">
    v1.0.0
  </text>
</svg>