<svg width="375" height="667" viewBox="0 0 375 667" xmlns="http://www.w3.org/2000/svg">
  <defs>
    <linearGradient id="splashGradient" x1="0%" y1="0%" x2="100%" y2="100%">
      <stop offset="0%" style="stop-color:#FF1B6B;stop-opacity:1" />
      <stop offset="50%" style="stop-color:#FF4D8A;stop-opacity:1" />
      <stop offset="100%" style="stop-color:#45CAFF;stop-opacity:1" />
    </linearGradient>
    <radialGradient id="centerGradient" cx="50%" cy="50%" r="50%">
      <stop offset="0%" style="stop-color:#FFD700;stop-opacity:1" />
      <stop offset="100%" style="stop-color:#FFB000;stop-opacity:1" />
    </radialGradient>
    <filter id="textShadow" x="-50%" y="-50%" width="200%" height="200%">
      <feDropShadow dx="2" dy="2" stdDeviation="3" flood-color="rgba(0,0,0,0.3)"/>
    </filter>
  </defs>
  
  <!-- Background -->
  <rect width="375" height="667" fill="url(#splashGradient)" />
  
  <!-- Heart particles -->
  <g transform="translate(43.431859445250986,241.6136115128703)" opacity="0.1">
      <path d="M 0,-9.285834110920012 
               C -4.642917055460006,-13.928751166380016 -13.928751166380016,-13.928751166380016 -13.928751166380016,-4.642917055460006
               C -13.928751166380016,4.642917055460006 -4.642917055460006,13.928751166380016 0,18.571668221840024
               C 4.642917055460006,13.928751166380016 13.928751166380016,4.642917055460006 13.928751166380016,-4.642917055460006
               C 13.928751166380016,-13.928751166380016 4.642917055460006,-13.928751166380016 0,-9.285834110920012
               Z" 
            fill="#FFFFFF"/>
    </g><g transform="translate(31.125627056118343,205.66119656817818)" opacity="0.1">
      <path d="M 0,-4.628721976572281 
               C -2.3143609882861407,-6.943082964858421 -6.943082964858421,-6.943082964858421 -6.943082964858421,-2.3143609882861407
               C -6.943082964858421,2.3143609882861407 -2.3143609882861407,6.943082964858421 0,9.257443953144563
               C 2.3143609882861407,6.943082964858421 6.943082964858421,2.3143609882861407 6.943082964858421,-2.3143609882861407
               C 6.943082964858421,-6.943082964858421 2.3143609882861407,-6.943082964858421 0,-4.628721976572281
               Z" 
            fill="#FFFFFF"/>
    </g><g transform="translate(90.02762294653385,227.1079450990997)" opacity="0.1">
      <path d="M 0,-8.0436295699419 
               C -4.02181478497095,-12.065444354912849 -12.065444354912849,-12.065444354912849 -12.065444354912849,-4.02181478497095
               C -12.065444354912849,4.02181478497095 -4.02181478497095,12.065444354912849 0,16.0872591398838
               C 4.02181478497095,12.065444354912849 12.065444354912849,4.02181478497095 12.065444354912849,-4.02181478497095
               C 12.065444354912849,-12.065444354912849 4.02181478497095,-12.065444354912849 0,-8.0436295699419
               Z" 
            fill="#FFFFFF"/>
    </g><g transform="translate(164.46042544399893,283.7394296219569)" opacity="0.1">
      <path d="M 0,-9.061359466692535 
               C -4.530679733346267,-13.5920392000388 -13.5920392000388,-13.5920392000388 -13.5920392000388,-4.530679733346267
               C -13.5920392000388,4.530679733346267 -4.530679733346267,13.5920392000388 0,18.12271893338507
               C 4.530679733346267,13.5920392000388 13.5920392000388,4.530679733346267 13.5920392000388,-4.530679733346267
               C 13.5920392000388,-13.5920392000388 4.530679733346267,-13.5920392000388 0,-9.061359466692535
               Z" 
            fill="#FFFFFF"/>
    </g><g transform="translate(150.21226474587036,192.89641574935317)" opacity="0.1">
      <path d="M 0,-9.248340102253378 
               C -4.624170051126689,-13.872510153380064 -13.872510153380064,-13.872510153380064 -13.872510153380064,-4.624170051126689
               C -13.872510153380064,4.624170051126689 -4.624170051126689,13.872510153380064 0,18.496680204506756
               C 4.624170051126689,13.872510153380064 13.872510153380064,4.624170051126689 13.872510153380064,-4.624170051126689
               C 13.872510153380064,-13.872510153380064 4.624170051126689,-13.872510153380064 0,-9.248340102253378
               Z" 
            fill="#FFFFFF"/>
    </g><g transform="translate(127.74280072084724,300.1654470774813)" opacity="0.1">
      <path d="M 0,-9.627885748028778 
               C -4.813942874014389,-14.441828622043165 -14.441828622043165,-14.441828622043165 -14.441828622043165,-4.813942874014389
               C -14.441828622043165,4.813942874014389 -4.813942874014389,14.441828622043165 0,19.255771496057555
               C 4.813942874014389,14.441828622043165 14.441828622043165,4.813942874014389 14.441828622043165,-4.813942874014389
               C 14.441828622043165,-14.441828622043165 4.813942874014389,-14.441828622043165 0,-9.627885748028778
               Z" 
            fill="#FFFFFF"/>
    </g><g transform="translate(228.69873489519384,188.4466229351148)" opacity="0.1">
      <path d="M 0,-9.425822964584423 
               C -4.712911482292212,-14.138734446876633 -14.138734446876633,-14.138734446876633 -14.138734446876633,-4.712911482292212
               C -14.138734446876633,4.712911482292212 -4.712911482292212,14.138734446876633 0,18.851645929168846
               C 4.712911482292212,14.138734446876633 14.138734446876633,4.712911482292212 14.138734446876633,-4.712911482292212
               C 14.138734446876633,-14.138734446876633 4.712911482292212,-14.138734446876633 0,-9.425822964584423
               Z" 
            fill="#FFFFFF"/>
    </g><g transform="translate(233.3600686050522,185.20445562385387)" opacity="0.1">
      <path d="M 0,-6.262808072690309 
               C -3.1314040363451543,-9.394212109035461 -9.394212109035461,-9.394212109035461 -9.394212109035461,-3.1314040363451543
               C -9.394212109035461,3.1314040363451543 -3.1314040363451543,9.394212109035461 0,12.525616145380617
               C 3.1314040363451543,9.394212109035461 9.394212109035461,3.1314040363451543 9.394212109035461,-3.1314040363451543
               C 9.394212109035461,-9.394212109035461 3.1314040363451543,-9.394212109035461 0,-6.262808072690309
               Z" 
            fill="#FFFFFF"/>
    </g><g transform="translate(211.91540286550367,375.375223988358)" opacity="0.1">
      <path d="M 0,-9.032777123491753 
               C -4.5163885617458766,-13.549165685237627 -13.549165685237627,-13.549165685237627 -13.549165685237627,-4.5163885617458766
               C -13.549165685237627,4.5163885617458766 -4.5163885617458766,13.549165685237627 0,18.065554246983506
               C 4.5163885617458766,13.549165685237627 13.549165685237627,4.5163885617458766 13.549165685237627,-4.5163885617458766
               C 13.549165685237627,-13.549165685237627 4.5163885617458766,-13.549165685237627 0,-9.032777123491753
               Z" 
            fill="#FFFFFF"/>
    </g><g transform="translate(286.9662512206018,189.94073725040474)" opacity="0.1">
      <path d="M 0,-7.07107714303607 
               C -3.535538571518035,-10.606615714554104 -10.606615714554104,-10.606615714554104 -10.606615714554104,-3.535538571518035
               C -10.606615714554104,3.535538571518035 -3.535538571518035,10.606615714554104 0,14.14215428607214
               C 3.535538571518035,10.606615714554104 10.606615714554104,3.535538571518035 10.606615714554104,-3.535538571518035
               C 10.606615714554104,-10.606615714554104 3.535538571518035,-10.606615714554104 0,-7.07107714303607
               Z" 
            fill="#FFFFFF"/>
    </g><g transform="translate(278.56516669950247,338.5615845480303)" opacity="0.1">
      <path d="M 0,-4.6732357772474895 
               C -2.3366178886237448,-7.009853665871233 -7.009853665871233,-7.009853665871233 -7.009853665871233,-2.3366178886237448
               C -7.009853665871233,2.3366178886237448 -2.3366178886237448,7.009853665871233 0,9.346471554494979
               C 2.3366178886237448,7.009853665871233 7.009853665871233,2.3366178886237448 7.009853665871233,-2.3366178886237448
               C 7.009853665871233,-7.009853665871233 2.3366178886237448,-7.009853665871233 0,-4.6732357772474895
               Z" 
            fill="#FFFFFF"/>
    </g><g transform="translate(366.3088257706992,264.8028162518484)" opacity="0.1">
      <path d="M 0,-8.636172821637787 
               C -4.318086410818894,-12.95425923245668 -12.95425923245668,-12.95425923245668 -12.95425923245668,-4.318086410818894
               C -12.95425923245668,4.318086410818894 -4.318086410818894,12.95425923245668 0,17.272345643275575
               C 4.318086410818894,12.95425923245668 12.95425923245668,4.318086410818894 12.95425923245668,-4.318086410818894
               C 12.95425923245668,-12.95425923245668 4.318086410818894,-12.95425923245668 0,-8.636172821637787
               Z" 
            fill="#FFFFFF"/>
    </g><g transform="translate(361.10022155951987,404.22458321734797)" opacity="0.1">
      <path d="M 0,-5.468275604367914 
               C -2.734137802183957,-8.20241340655187 -8.20241340655187,-8.20241340655187 -8.20241340655187,-2.734137802183957
               C -8.20241340655187,2.734137802183957 -2.734137802183957,8.20241340655187 0,10.936551208735828
               C 2.734137802183957,8.20241340655187 8.20241340655187,2.734137802183957 8.20241340655187,-2.734137802183957
               C 8.20241340655187,-8.20241340655187 2.734137802183957,-8.20241340655187 0,-5.468275604367914
               Z" 
            fill="#FFFFFF"/>
    </g><g transform="translate(403.09104095332987,473.66755056773377)" opacity="0.1">
      <path d="M 0,-6.588827556053909 
               C -3.2944137780269545,-9.883241334080862 -9.883241334080862,-9.883241334080862 -9.883241334080862,-3.2944137780269545
               C -9.883241334080862,3.2944137780269545 -3.2944137780269545,9.883241334080862 0,13.177655112107818
               C 3.2944137780269545,9.883241334080862 9.883241334080862,3.2944137780269545 9.883241334080862,-3.2944137780269545
               C 9.883241334080862,-9.883241334080862 3.2944137780269545,-9.883241334080862 0,-6.588827556053909
               Z" 
            fill="#FFFFFF"/>
    </g><g transform="translate(387.0827776850092,307.5972754409463)" opacity="0.1">
      <path d="M 0,-6.590916891970756 
               C -3.295458445985378,-9.886375337956133 -9.886375337956133,-9.886375337956133 -9.886375337956133,-3.295458445985378
               C -9.886375337956133,3.295458445985378 -3.295458445985378,9.886375337956133 0,13.181833783941512
               C 3.295458445985378,9.886375337956133 9.886375337956133,3.295458445985378 9.886375337956133,-3.295458445985378
               C 9.886375337956133,-9.886375337956133 3.295458445985378,-9.886375337956133 0,-6.590916891970756
               Z" 
            fill="#FFFFFF"/>
    </g>
  
  <!-- Main logo -->
  <g transform="translate(187.5,296)" filter="url(#textShadow)">
    <ellipse cx="9.18485099360515e-16" cy="-15" rx="9" ry="5.3999999999999995" 
                transform="rotate(-90 9.18485099360515e-16 -15)" fill="#FFFFFF" opacity="0.9"/><ellipse cx="10.606601717798213" cy="-10.606601717798211" rx="9" ry="5.3999999999999995" 
                transform="rotate(-45 10.606601717798213 -10.606601717798211)" fill="#FFFFFF" opacity="0.9"/><ellipse cx="15" cy="0" rx="9" ry="5.3999999999999995" 
                transform="rotate(0 15 0)" fill="#FFFFFF" opacity="0.9"/><ellipse cx="10.606601717798213" cy="10.606601717798211" rx="9" ry="5.3999999999999995" 
                transform="rotate(45 10.606601717798213 10.606601717798211)" fill="#FFFFFF" opacity="0.9"/><ellipse cx="9.18485099360515e-16" cy="15" rx="9" ry="5.3999999999999995" 
                transform="rotate(90 9.18485099360515e-16 15)" fill="#FFFFFF" opacity="0.9"/><ellipse cx="-10.606601717798211" cy="10.606601717798213" rx="9" ry="5.3999999999999995" 
                transform="rotate(135 -10.606601717798211 10.606601717798213)" fill="#FFFFFF" opacity="0.9"/><ellipse cx="-15" cy="1.83697019872103e-15" rx="9" ry="5.3999999999999995" 
                transform="rotate(180 -15 1.83697019872103e-15)" fill="#FFFFFF" opacity="0.9"/><ellipse cx="-10.606601717798215" cy="-10.606601717798211" rx="9" ry="5.3999999999999995" 
                transform="rotate(225 -10.606601717798215 -10.606601717798211)" fill="#FFFFFF" opacity="0.9"/>
    
    <!-- Center circle -->
    <circle cx="0" cy="0" r="9" fill="url(#centerGradient)" />
  </g>
  
  <!-- App title -->
  <text x="187.5" y="393.5" 
        font-family="Arial, sans-serif" font-size="22.5" font-weight="bold" 
        text-anchor="middle" fill="#FFFFFF" filter="url(#textShadow)">
    Flourish
  </text>
  
  <!-- Subtitle -->
  <text x="187.5" y="431" 
        font-family="Arial, sans-serif" font-size="13.125000000000002" 
        text-anchor="middle" fill="rgba(255,255,255,0.9)" filter="url(#textShadow)">
    AI-Powered Relationship Coach
  </text>
  
  <!-- Version -->
  <text x="187.5" y="633.65" 
        font-family="Arial, sans-serif" font-size="7.875000000000001" 
        text-anchor="middle" fill="rgba(255,255,255,0.6)">
    v1.0.0
  </text>
</svg>