<svg width="768" height="1024" viewBox="0 0 768 1024" xmlns="http://www.w3.org/2000/svg">
  <defs>
    <linearGradient id="splashGradient" x1="0%" y1="0%" x2="100%" y2="100%">
      <stop offset="0%" style="stop-color:#FF1B6B;stop-opacity:1" />
      <stop offset="50%" style="stop-color:#FF4D8A;stop-opacity:1" />
      <stop offset="100%" style="stop-color:#45CAFF;stop-opacity:1" />
    </linearGradient>
    <radialGradient id="centerGradient" cx="50%" cy="50%" r="50%">
      <stop offset="0%" style="stop-color:#FFD700;stop-opacity:1" />
      <stop offset="100%" style="stop-color:#FFB000;stop-opacity:1" />
    </radialGradient>
    <filter id="textShadow" x="-50%" y="-50%" width="200%" height="200%">
      <feDropShadow dx="2" dy="2" stdDeviation="3" flood-color="rgba(0,0,0,0.3)"/>
    </filter>
  </defs>
  
  <!-- Background -->
  <rect width="768" height="1024" fill="url(#splashGradient)" />
  
  <!-- Heart particles -->
  <g transform="translate(80.62467944130908,616.5323217069847)" opacity="0.1">
      <path d="M 0,-7.7412745212491005 
               C -3.8706372606245503,-11.61191178187365 -11.61191178187365,-11.61191178187365 -11.61191178187365,-3.8706372606245503
               C -11.61191178187365,3.8706372606245503 -3.8706372606245503,11.61191178187365 0,15.482549042498201
               C 3.8706372606245503,11.61191178187365 11.61191178187365,3.8706372606245503 11.61191178187365,-3.8706372606245503
               C 11.61191178187365,-11.61191178187365 3.8706372606245503,-11.61191178187365 0,-7.7412745212491005
               Z" 
            fill="#FFFFFF"/>
    </g><g transform="translate(97.77260611954095,405.96238002387827)" opacity="0.1">
      <path d="M 0,-6.809676377493401 
               C -3.4048381887467003,-10.2145145662401 -10.2145145662401,-10.2145145662401 -10.2145145662401,-3.4048381887467003
               C -10.2145145662401,3.4048381887467003 -3.4048381887467003,10.2145145662401 0,13.619352754986801
               C 3.4048381887467003,10.2145145662401 10.2145145662401,3.4048381887467003 10.2145145662401,-3.4048381887467003
               C 10.2145145662401,-10.2145145662401 3.4048381887467003,-10.2145145662401 0,-6.809676377493401
               Z" 
            fill="#FFFFFF"/>
    </g><g transform="translate(191.6095547857529,427.02195883164427)" opacity="0.1">
      <path d="M 0,-7.9952984626899415 
               C -3.9976492313449707,-11.99294769403491 -11.99294769403491,-11.99294769403491 -11.99294769403491,-3.9976492313449707
               C -11.99294769403491,3.9976492313449707 -3.9976492313449707,11.99294769403491 0,15.990596925379883
               C 3.9976492313449707,11.99294769403491 11.99294769403491,3.9976492313449707 11.99294769403491,-3.9976492313449707
               C 11.99294769403491,-11.99294769403491 3.9976492313449707,-11.99294769403491 0,-7.9952984626899415
               Z" 
            fill="#FFFFFF"/>
    </g><g transform="translate(202.9991435279621,490.9301532414262)" opacity="0.1">
      <path d="M 0,-4.469293681025357 
               C -2.2346468405126787,-6.703940521538035 -6.703940521538035,-6.703940521538035 -6.703940521538035,-2.2346468405126787
               C -6.703940521538035,2.2346468405126787 -2.2346468405126787,6.703940521538035 0,8.938587362050715
               C 2.2346468405126787,6.703940521538035 6.703940521538035,2.2346468405126787 6.703940521538035,-2.2346468405126787
               C 6.703940521538035,-6.703940521538035 2.2346468405126787,-6.703940521538035 0,-4.469293681025357
               Z" 
            fill="#FFFFFF"/>
    </g><g transform="translate(238.90462393585597,364.59560895630796)" opacity="0.1">
      <path d="M 0,-7.938016976310661 
               C -3.9690084881553305,-11.90702546446599 -11.90702546446599,-11.90702546446599 -11.90702546446599,-3.9690084881553305
               C -11.90702546446599,3.9690084881553305 -3.9690084881553305,11.90702546446599 0,15.876033952621322
               C 3.9690084881553305,11.90702546446599 11.90702546446599,3.9690084881553305 11.90702546446599,-3.9690084881553305
               C 11.90702546446599,-11.90702546446599 3.9690084881553305,-11.90702546446599 0,-7.938016976310661
               Z" 
            fill="#FFFFFF"/>
    </g><g transform="translate(297.04573686389415,610.5486107620164)" opacity="0.1">
      <path d="M 0,-4.347420338153994 
               C -2.173710169076997,-6.52113050723099 -6.52113050723099,-6.52113050723099 -6.52113050723099,-2.173710169076997
               C -6.52113050723099,2.173710169076997 -2.173710169076997,6.52113050723099 0,8.694840676307988
               C 2.173710169076997,6.52113050723099 6.52113050723099,2.173710169076997 6.52113050723099,-2.173710169076997
               C 6.52113050723099,-6.52113050723099 2.173710169076997,-6.52113050723099 0,-4.347420338153994
               Z" 
            fill="#FFFFFF"/>
    </g><g transform="translate(329.92066500710365,341.49903065622823)" opacity="0.1">
      <path d="M 0,-9.565068715885753 
               C -4.782534357942876,-14.347603073828628 -14.347603073828628,-14.347603073828628 -14.347603073828628,-4.782534357942876
               C -14.347603073828628,4.782534357942876 -4.782534357942876,14.347603073828628 0,19.130137431771505
               C 4.782534357942876,14.347603073828628 14.347603073828628,4.782534357942876 14.347603073828628,-4.782534357942876
               C 14.347603073828628,-14.347603073828628 4.782534357942876,-14.347603073828628 0,-9.565068715885753
               Z" 
            fill="#FFFFFF"/>
    </g><g transform="translate(425.0454008464561,297.915669225907)" opacity="0.1">
      <path d="M 0,-8.308671978533823 
               C -4.154335989266912,-12.463007967800735 -12.463007967800735,-12.463007967800735 -12.463007967800735,-4.154335989266912
               C -12.463007967800735,4.154335989266912 -4.154335989266912,12.463007967800735 0,16.617343957067646
               C 4.154335989266912,12.463007967800735 12.463007967800735,4.154335989266912 12.463007967800735,-4.154335989266912
               C 12.463007967800735,-12.463007967800735 4.154335989266912,-12.463007967800735 0,-8.308671978533823
               Z" 
            fill="#FFFFFF"/>
    </g><g transform="translate(462.0085896572013,386.34725590063454)" opacity="0.1">
      <path d="M 0,-9.96771637796766 
               C -4.98385818898383,-14.951574566951487 -14.951574566951487,-14.951574566951487 -14.951574566951487,-4.98385818898383
               C -14.951574566951487,4.98385818898383 -4.98385818898383,14.951574566951487 0,19.93543275593532
               C 4.98385818898383,14.951574566951487 14.951574566951487,4.98385818898383 14.951574566951487,-4.98385818898383
               C 14.951574566951487,-14.951574566951487 4.98385818898383,-14.951574566951487 0,-9.96771637796766
               Z" 
            fill="#FFFFFF"/>
    </g><g transform="translate(463.49636778763954,358.97227740704204)" opacity="0.1">
      <path d="M 0,-9.627230003976152 
               C -4.813615001988076,-14.440845005964228 -14.440845005964228,-14.440845005964228 -14.440845005964228,-4.813615001988076
               C -14.440845005964228,4.813615001988076 -4.813615001988076,14.440845005964228 0,19.254460007952304
               C 4.813615001988076,14.440845005964228 14.440845005964228,4.813615001988076 14.440845005964228,-4.813615001988076
               C 14.440845005964228,-14.440845005964228 4.813615001988076,-14.440845005964228 0,-9.627230003976152
               Z" 
            fill="#FFFFFF"/>
    </g><g transform="translate(545.4880541484287,767.1458344907471)" opacity="0.1">
      <path d="M 0,-5.106857910012809 
               C -2.5534289550064044,-7.660286865019212 -7.660286865019212,-7.660286865019212 -7.660286865019212,-2.5534289550064044
               C -7.660286865019212,2.5534289550064044 -2.5534289550064044,7.660286865019212 0,10.213715820025618
               C 2.5534289550064044,7.660286865019212 7.660286865019212,2.5534289550064044 7.660286865019212,-2.5534289550064044
               C 7.660286865019212,-7.660286865019212 2.5534289550064044,-7.660286865019212 0,-5.106857910012809
               Z" 
            fill="#FFFFFF"/>
    </g><g transform="translate(653.6580857243741,554.1964334715583)" opacity="0.1">
      <path d="M 0,-5.860172206072596 
               C -2.930086103036298,-8.790258309108893 -8.790258309108893,-8.790258309108893 -8.790258309108893,-2.930086103036298
               C -8.790258309108893,2.930086103036298 -2.930086103036298,8.790258309108893 0,11.720344412145192
               C 2.930086103036298,8.790258309108893 8.790258309108893,2.930086103036298 8.790258309108893,-2.930086103036298
               C 8.790258309108893,-8.790258309108893 2.930086103036298,-8.790258309108893 0,-5.860172206072596
               Z" 
            fill="#FFFFFF"/>
    </g><g transform="translate(681.6622616620609,512.5756461985139)" opacity="0.1">
      <path d="M 0,-6.163931608111065 
               C -3.0819658040555327,-9.245897412166597 -9.245897412166597,-9.245897412166597 -9.245897412166597,-3.0819658040555327
               C -9.245897412166597,3.0819658040555327 -3.0819658040555327,9.245897412166597 0,12.32786321622213
               C 3.0819658040555327,9.245897412166597 9.245897412166597,3.0819658040555327 9.245897412166597,-3.0819658040555327
               C 9.245897412166597,-9.245897412166597 3.0819658040555327,-9.245897412166597 0,-6.163931608111065
               Z" 
            fill="#FFFFFF"/>
    </g><g transform="translate(739.5184894621028,384.67606383389705)" opacity="0.1">
      <path d="M 0,-6.52089924054501 
               C -3.260449620272505,-9.781348860817513 -9.781348860817513,-9.781348860817513 -9.781348860817513,-3.260449620272505
               C -9.781348860817513,3.260449620272505 -3.260449620272505,9.781348860817513 0,13.04179848109002
               C 3.260449620272505,9.781348860817513 9.781348860817513,3.260449620272505 9.781348860817513,-3.260449620272505
               C 9.781348860817513,-9.781348860817513 3.260449620272505,-9.781348860817513 0,-6.52089924054501
               Z" 
            fill="#FFFFFF"/>
    </g><g transform="translate(814.8217792661053,419.25279253854933)" opacity="0.1">
      <path d="M 0,-4.3377277697077625 
               C -2.1688638848538813,-6.506591654561643 -6.506591654561643,-6.506591654561643 -6.506591654561643,-2.1688638848538813
               C -6.506591654561643,2.1688638848538813 -2.1688638848538813,6.506591654561643 0,8.675455539415525
               C 2.1688638848538813,6.506591654561643 6.506591654561643,2.1688638848538813 6.506591654561643,-2.1688638848538813
               C 6.506591654561643,-6.506591654561643 2.1688638848538813,-6.506591654561643 0,-4.3377277697077625
               Z" 
            fill="#FFFFFF"/>
    </g>
  
  <!-- Main logo -->
  <g transform="translate(384,435.2)" filter="url(#textShadow)">
    <ellipse cx="1.8810574834903347e-15" cy="-30.720000000000006" rx="18.432000000000002" ry="11.0592" 
                transform="rotate(-90 1.8810574834903347e-15 -30.720000000000006)" fill="#FFFFFF" opacity="0.9"/><ellipse cx="21.722320318050745" cy="-21.72232031805074" rx="18.432000000000002" ry="11.0592" 
                transform="rotate(-45 21.722320318050745 -21.72232031805074)" fill="#FFFFFF" opacity="0.9"/><ellipse cx="30.720000000000006" cy="0" rx="18.432000000000002" ry="11.0592" 
                transform="rotate(0 30.720000000000006 0)" fill="#FFFFFF" opacity="0.9"/><ellipse cx="21.722320318050745" cy="21.72232031805074" rx="18.432000000000002" ry="11.0592" 
                transform="rotate(45 21.722320318050745 21.72232031805074)" fill="#FFFFFF" opacity="0.9"/><ellipse cx="1.8810574834903347e-15" cy="30.720000000000006" rx="18.432000000000002" ry="11.0592" 
                transform="rotate(90 1.8810574834903347e-15 30.720000000000006)" fill="#FFFFFF" opacity="0.9"/><ellipse cx="-21.72232031805074" cy="21.722320318050745" rx="18.432000000000002" ry="11.0592" 
                transform="rotate(135 -21.72232031805074 21.722320318050745)" fill="#FFFFFF" opacity="0.9"/><ellipse cx="-30.720000000000006" cy="3.7621149669806694e-15" rx="18.432000000000002" ry="11.0592" 
                transform="rotate(180 -30.720000000000006 3.7621149669806694e-15)" fill="#FFFFFF" opacity="0.9"/><ellipse cx="-21.72232031805075" cy="-21.72232031805074" rx="18.432000000000002" ry="11.0592" 
                transform="rotate(225 -21.72232031805075 -21.72232031805074)" fill="#FFFFFF" opacity="0.9"/>
    
    <!-- Center circle -->
    <circle cx="0" cy="0" r="18.432000000000002" fill="url(#centerGradient)" />
  </g>
  
  <!-- App title -->
  <text x="384" y="634.88" 
        font-family="Arial, sans-serif" font-size="46.08" font-weight="bold" 
        text-anchor="middle" fill="#FFFFFF" filter="url(#textShadow)">
    Flourish
  </text>
  
  <!-- Subtitle -->
  <text x="384" y="711.6800000000001" 
        font-family="Arial, sans-serif" font-size="26.880000000000003" 
        text-anchor="middle" fill="rgba(255,255,255,0.9)" filter="url(#textShadow)">
    AI-Powered Relationship Coach
  </text>
  
  <!-- Version -->
  <text x="384" y="972.8" 
        font-family="Arial, sans-serif" font-size="16.128" 
        text-anchor="middle" fill="rgba(255,255,255,0.6)">
    v1.0.0
  </text>
</svg>